<?xml version="1.0" encoding="utf-8"?>
<!-- Generator: Adobe Illustrator 25.2.0, SVG Export Plug-In . SVG Version: 6.00 Build 0)  -->
<svg version="1.1" id="Layer_1" xmlns="http://www.w3.org/2000/svg" xmlns:xlink="http://www.w3.org/1999/xlink" x="0px" y="0px"
	 viewBox="0 0 40 30" style="enable-background:new 0 0 40 30;" xml:space="preserve">
<style type="text/css">
	.st0{fill:#EF5F23;}
	.st1{fill:#17499F;}
	.st2{fill:#FCFDFC;}
	.st3{fill:#EF5F24;}
</style>
<g>
	<path class="st0" d="M35.5,24.9c-1.3,0-2.6,0-3.9,0c-3.1,0.1-6.3,0.4-9.4,0.8c-4.1,0.6-8.2,1.4-12.2,2.4c-2.2,0.5-4.4,1.1-6.6,1.8
		c-0.3,0.1-0.4,0-0.4-0.3c0-0.2,0-0.5,0-0.7c0-0.3,0.1-0.5,0.4-0.6c3.3-0.8,6.6-1.5,9.9-2c3.1-0.5,6.2-0.9,9.4-1.2
		c4.2-0.4,8.4-0.6,12.7-0.4C35.5,24.8,35.5,24.9,35.5,24.9z"/>
	<path class="st1" d="M25.4,24.4c-2.6,0-5.3,0.1-7.9,0.3C13.2,25,9,25.5,4.8,26.3c-0.3,0.1-0.3,0-0.3-0.3c0.2-3.4,0.4-6.9,0.6-10.3
		C5.2,12.4,5.4,9.2,5.6,6c0-0.3,0.1-0.3,0.3-0.3c0.5,0,1,0,1.5,0l10.8,0l-10.8-1c-0.3,0-0.6-0.1-0.9-0.1C5.6,4.6,4.7,4.6,3.8,4.5
		c-0.2,0-0.3,0-0.3,0.2c-0.3,1.9-0.6,3.8-0.9,5.6C2,13.9,1.4,17.5,0.8,21.2c-0.3,1.6-0.5,3.1-0.8,4.7c0,0.1-0.1,0.3,0.1,0.3
		c1.1,0.1,1.9,0.7,2.6,1.5c0.1,0.1,0.2,0.2,0.4,0.2c2.8-0.7,5.7-1.2,8.5-1.7c3-0.5,6-0.9,9-1.2c1.7-0.2,3.4-0.3,5.1-0.4
		C25.7,24.4,25.6,24.4,25.4,24.4z"/>
	<path class="st2" d="M2.6,18.5c-0.3,1.7-0.7,3.4-1,5c-0.1,0.6-0.2,1.2-0.4,1.8c0,0.1,0,0.3-0.2,0.2c-0.2-0.1-0.4,0-0.3-0.3
		c0.2-1.1,0.3-2.3,0.5-3.5c0.4-2.5,0.7-4.9,1.1-7.4c0.3-2.4,0.7-4.9,1-7.3c0.1-0.7,0.2-1.3,0.3-2c0-0.3,0.2-0.3,0.4-0.3
		c0.3,0,0.2,0.2,0.2,0.3c-0.2,3.2-0.4,6.4-0.6,9.6C3.5,18.6,3.2,22.5,3,26.4c0,0.1,0,0.2,0,0.3c-0.2-0.2-0.4-0.3-0.6-0.5
		c-0.2-0.1-0.1-0.2-0.1-0.4c0.1-1.9,0.2-3.7,0.3-5.6C2.6,19.7,2.6,19.1,2.6,18.5C2.7,18.5,2.6,18.5,2.6,18.5z"/>
	<path class="st3" d="M16.5,7.5c0,0.2,0.1,0.2,0.2,0.3c0.4,0.4,0.4,0.9,0.1,1.3c-0.3,0.3-0.9,0.3-1.2,0c-0.4-0.4-0.4-0.9,0.1-1.3
		c0.1-0.1,0.2-0.3,0.2-0.4c0-0.5,0.1-2.9,0-3.5c-0.3-1.6-1.4-2.8-3-3.1c-2.3-0.5-4.5,1.4-4.4,3.7c0,0.4-0.1,2.4-0.1,3
		c0,0.2,0.1,0.2,0.2,0.3c0.4,0.4,0.4,0.9,0.1,1.3c-0.3,0.3-0.9,0.3-1.2,0C6.9,8.8,6.9,8.2,7.3,7.9c0.2-0.1,0.2-0.3,0.2-0.5
		c0-0.5-0.1-3.7,0.4-4.9c0.9-1.8,2.8-2.8,4.9-2.5c1.9,0.3,3.5,2,3.7,3.9c0,0.4,0.1,0.7,0,1.1"/>
</g>
<g>
	<path class="st1" d="M8.2,18.2c-0.5,0-1-0.1-1.3-0.3C6.5,17.7,6.2,17.4,6,17c-0.2-0.4-0.4-0.8-0.5-1.3c-0.1-0.5-0.1-1.1-0.1-1.7
		c0-0.4,0-0.8,0.1-1.1c0-0.4,0.1-0.7,0.2-1c0.1-0.3,0.2-0.6,0.4-0.8c0.2-0.3,0.3-0.5,0.6-0.7c0.2-0.2,0.5-0.3,0.7-0.4
		C7.6,9.9,8,9.8,8.3,9.8c0.2,0,0.4,0,0.7,0c0.2,0,0.5,0.1,0.8,0.2c0.1,0.1,0.3,0.2,0.4,0.3c0.1,0.1,0.3,0.3,0.4,0.5
		c0,0.1,0,0.3,0,0.4c0,0.2,0,0.4-0.1,0.6c0,0.2-0.1,0.4-0.1,0.6c0,0.2-0.1,0.4-0.1,0.6c0,0.2-0.1,0.3-0.1,0.4c0,0.1-0.1,0.2-0.1,0.3
		c0,0-0.1,0-0.1,0.1c0,0-0.1,0-0.1,0c0,0-0.1,0-0.1,0c0,0-0.1,0-0.2,0c-0.1,0-0.3,0-0.4,0c-0.1,0-0.2-0.1-0.3-0.1l-0.2-1.8
		c-0.1,0-0.3-0.1-0.4-0.1c-0.2,0-0.3,0-0.5,0c0,0-0.1,0-0.1,0c0,0-0.1,0-0.1,0c-0.1,0.3-0.1,0.6-0.2,0.9c0,0.3-0.1,0.7-0.1,1.1
		c0,0.1,0,0.1,0,0.2c0,0.1,0,0.2,0,0.2c0,0.2,0,0.4,0,0.6c0,0.2,0,0.4,0.1,0.6c0,0.2,0.1,0.3,0.1,0.5c0,0.1,0.1,0.2,0.1,0.3
		c0.1,0.1,0.1,0.2,0.2,0.2c0.1,0,0.2,0.1,0.4,0.1c0.2,0,0.3,0,0.5,0c0.1,0,0.3-0.1,0.4-0.1c0.1-0.1,0.3-0.1,0.4-0.2
		c0.1-0.1,0.3-0.2,0.4-0.2c0.1,0.1,0.1,0.2,0.2,0.2c0.1,0.1,0.1,0.2,0.2,0.2c0.1,0.1,0.1,0.2,0.1,0.3c0,0.1,0.1,0.2,0.1,0.4
		c0,0-0.1,0.1-0.1,0.2c-0.1,0.1-0.1,0.2-0.2,0.3c-0.1,0.1-0.2,0.2-0.3,0.3c-0.1,0.1-0.3,0.2-0.5,0.3S9,18,8.8,18.1
		C8.6,18.1,8.4,18.2,8.2,18.2z"/>
	<path class="st1" d="M11.3,17.9c0-0.1,0-0.3,0-0.4c0-0.1,0-0.3,0-0.5c0-0.2,0-0.4,0-0.7c0-0.2,0-0.4,0-0.7c0-0.3,0-0.6,0-0.9
		c0-0.3,0-0.6,0-0.9c0-0.3,0-0.6,0-0.9s0-0.6,0-0.9s0-0.5,0-0.7l-0.5-0.1c0-0.2-0.1-0.3-0.1-0.5c0-0.2,0-0.4,0-0.5
		c0,0,0.1-0.1,0.2-0.2C11,9.8,11,9.7,11.2,9.7s0.2-0.1,0.4-0.2c0.1,0,0.3-0.1,0.4-0.1c0.4,0,0.7,0.1,0.8,0.3c0.2,0.2,0.3,0.6,0.3,1
		c0,0.1,0,0.2,0,0.4c0,0.2,0,0.3,0,0.6s0,0.4-0.1,0.7c0,0.2,0,0.5-0.1,0.7c0,0.3-0.1,0.5-0.1,0.7c0,0.2-0.1,0.5-0.1,0.7
		c0,0,0,0,0,0.1c0,0,0,0,0.1,0c0,0,0,0,0.1,0c0-0.2,0.1-0.4,0.1-0.6c0.1-0.2,0.1-0.4,0.2-0.6c0.1-0.2,0.1-0.4,0.2-0.6
		c0.1-0.2,0.2-0.4,0.3-0.5c0.1-0.1,0.3-0.3,0.4-0.4c0.2-0.1,0.4-0.1,0.6-0.1c0.3,0,0.5,0.1,0.7,0.2c0.2,0.1,0.3,0.2,0.4,0.4
		c0.1,0.2,0.2,0.4,0.2,0.6c0,0.2,0.1,0.4,0.1,0.7c0,0.3,0,0.6-0.1,0.9c0,0.3-0.1,0.6-0.2,0.8c-0.1,0.3-0.1,0.5-0.2,0.7
		c-0.1,0.2-0.1,0.4-0.1,0.5l0,0l0.7-0.3c0.1,0.1,0.2,0.3,0.3,0.4c0.1,0.2,0.1,0.3,0.1,0.5c-0.1,0.2-0.2,0.4-0.4,0.5
		c-0.1,0.1-0.1,0.1-0.2,0.2c-0.1,0.1-0.2,0.1-0.3,0.2c-0.1,0-0.2,0.1-0.3,0.1c-0.1,0-0.2,0-0.3,0c-0.1,0-0.3,0-0.4-0.1
		c-0.1,0-0.2-0.1-0.3-0.2c-0.1-0.1-0.2-0.2-0.2-0.4c-0.1-0.2-0.1-0.4-0.1-0.6c0-0.2,0-0.4,0-0.7c0-0.3,0-0.5,0-0.8
		c0-0.3,0-0.5,0-0.8s0-0.4,0-0.6c0-0.1-0.1-0.1-0.1-0.1c0,0-0.1,0-0.1,0c0,0.1-0.1,0.1-0.1,0.3c-0.1,0.1-0.1,0.2-0.2,0.4
		c-0.1,0.1-0.1,0.3-0.2,0.4c-0.1,0.1-0.1,0.3-0.2,0.4c-0.1,0.1-0.1,0.3-0.1,0.4C13,15.9,13,16,13,16c0,0,0,0,0,0.1c0,0,0,0.1,0,0.1
		c0,0.1,0,0.2,0,0.3c0,0.1,0,0.3,0.1,0.4c0,0.1,0,0.3,0.1,0.4c0,0.1,0.1,0.3,0.1,0.4c-0.1,0.1-0.2,0.2-0.3,0.3
		c-0.2,0.1-0.4,0.1-0.6,0.1c-0.2,0-0.3,0-0.5,0c-0.1,0-0.2-0.1-0.3-0.1C11.4,18,11.4,17.9,11.3,17.9z"/>
	<path class="st1" d="M19.3,18.2c-0.4,0-0.8-0.1-1.1-0.3c-0.3-0.2-0.5-0.4-0.7-0.7c-0.2-0.3-0.3-0.6-0.4-1c-0.1-0.4-0.1-0.8-0.1-1.2
		c0-0.5,0-0.9,0.1-1.3c0.1-0.4,0.2-0.7,0.4-1c0.2-0.3,0.5-0.5,0.8-0.7c0.3-0.2,0.7-0.2,1.1-0.2c0.5,0,0.9,0.1,1.2,0.2
		c0.3,0.2,0.5,0.4,0.7,0.7c0.2,0.3,0.3,0.6,0.4,1s0.1,0.8,0.1,1.3c0,0.4-0.1,0.9-0.2,1.3c-0.1,0.4-0.3,0.7-0.5,1
		c-0.2,0.3-0.5,0.5-0.8,0.7C20,18.1,19.7,18.2,19.3,18.2z M18.9,16.5C18.9,16.5,18.9,16.5,18.9,16.5c0.1,0.1,0.2,0.1,0.2,0.1
		c0.1,0,0.1,0,0.2,0c0.1,0,0.1,0,0.2,0c0.1,0,0.1,0,0.2,0c0.1,0,0.1,0,0.1,0c0.1-0.1,0.1-0.4,0.2-0.6c0-0.3,0.1-0.5,0.1-0.8
		c0-0.3,0-0.5,0-0.8c0-0.2-0.1-0.4-0.1-0.6c0,0-0.1-0.1-0.2-0.1c-0.1,0-0.2,0-0.3,0c-0.1,0-0.2,0-0.2,0c-0.1,0-0.1,0-0.1,0
		c-0.1,0.2-0.1,0.4-0.2,0.6s-0.1,0.4-0.1,0.7c0,0.3,0,0.5,0.1,0.8C18.8,16,18.8,16.3,18.9,16.5z"/>
	<path class="st1" d="M22.7,16.9c0-0.2,0-0.5,0-0.8c0-0.3,0-0.6,0-0.8c0-0.3,0-0.6,0-0.9c0-0.3,0-0.6,0.1-0.9l-0.6-0.1
		c0-0.2-0.1-0.3-0.1-0.5c0-0.1,0-0.3,0-0.4c0,0,0,0,0-0.1c0,0,0,0,0-0.1c0-0.1,0.1-0.1,0.2-0.2c0.1-0.1,0.2-0.1,0.3-0.2
		c0.1-0.1,0.2-0.1,0.4-0.2c0.1,0,0.3-0.1,0.4-0.1c0.2,0,0.4,0,0.6,0.1c0.1,0.1,0.3,0.1,0.4,0.3c0.1,0.1,0.2,0.3,0.2,0.4
		c0,0.2,0.1,0.4,0.1,0.6c0,0.1,0,0.3,0,0.5c0,0.2,0,0.4-0.1,0.6c0,0.2-0.1,0.4-0.1,0.7c0,0.2-0.1,0.4-0.1,0.6c0,0.2-0.1,0.4-0.1,0.5
		c0,0.2-0.1,0.3-0.1,0.4l0,0l0.7-0.3c0.1,0.1,0.2,0.3,0.3,0.4c0.1,0.1,0.1,0.3,0.1,0.5c-0.1,0.2-0.2,0.4-0.4,0.5
		c-0.1,0.1-0.1,0.1-0.2,0.2c-0.1,0.1-0.2,0.1-0.3,0.2c-0.1,0-0.2,0.1-0.3,0.1c-0.1,0-0.2,0-0.3,0c-0.1,0-0.3,0-0.4-0.1
		c-0.1,0-0.2-0.1-0.3-0.2c-0.1-0.1-0.2-0.2-0.2-0.4C22.8,17.4,22.7,17.2,22.7,16.9z M23.6,11.5c-0.2,0-0.3,0-0.4-0.1
		c-0.1-0.1-0.3-0.1-0.3-0.2c-0.1-0.1-0.2-0.2-0.2-0.3c-0.1-0.1-0.1-0.2-0.1-0.3c0-0.1,0-0.3,0.1-0.4c0-0.1,0.1-0.2,0.2-0.3
		c0.1-0.1,0.2-0.2,0.3-0.2c0.1-0.1,0.3-0.1,0.5-0.1c0.2,0,0.4,0,0.5,0.1c0.1,0.1,0.3,0.1,0.3,0.2c0.1,0.1,0.1,0.2,0.2,0.3
		c0,0.1,0.1,0.3,0.1,0.4c0,0.1,0,0.3-0.1,0.4c-0.1,0.1-0.1,0.2-0.2,0.3c-0.1,0.1-0.2,0.2-0.4,0.2C23.9,11.4,23.8,11.5,23.6,11.5z"/>
	<path class="st1" d="M27.9,18.2c-0.4,0-0.7-0.1-1-0.3c-0.3-0.2-0.5-0.4-0.7-0.7c-0.2-0.3-0.3-0.6-0.4-1c-0.1-0.4-0.2-0.8-0.2-1.2
		c0-0.4,0-0.9,0.1-1.3c0.1-0.4,0.2-0.7,0.4-1c0.2-0.3,0.5-0.5,0.8-0.7c0.3-0.2,0.7-0.3,1.1-0.3c0.1,0,0.2,0,0.3,0c0.1,0,0.2,0,0.3,0
		c0.1,0,0.2,0,0.4,0.1c0.1,0,0.3,0,0.4,0.1c0.1,0.1,0.1,0.1,0.2,0.2c0.1,0,0.1,0.1,0.1,0.1c0,0,0.1,0.1,0.1,0.1
		c0,0.1,0.1,0.1,0.1,0.2c0,0.1,0,0.2,0,0.4c0,0.1,0,0.3,0,0.4c0,0.2,0,0.3-0.1,0.5c0,0.2-0.1,0.3-0.1,0.4c0,0.1-0.1,0.3-0.1,0.4
		c0,0.1-0.1,0.2-0.1,0.2c-0.1,0-0.1,0.1-0.2,0.1c-0.1,0-0.2,0-0.3,0c-0.1,0-0.2,0-0.3,0c-0.1,0-0.2,0-0.2-0.1l-0.1-1
		c0,0-0.1-0.1-0.1-0.1c-0.1,0-0.1,0-0.2-0.1c-0.1,0-0.2,0-0.2,0c-0.1,0-0.1,0-0.2,0c0,0,0,0-0.1,0c0,0,0,0-0.1,0
		c0,0.1-0.1,0.2-0.1,0.3c0,0.1,0,0.2-0.1,0.4c0,0.1,0,0.3,0,0.4c0,0.1,0,0.3,0,0.4c0,0.1,0,0.3,0,0.5c0,0.2,0.1,0.3,0.1,0.5
		c0.1,0.1,0.1,0.3,0.3,0.4c0.1,0.1,0.3,0.1,0.5,0.1c0.1,0,0.2,0,0.3,0c0.1,0,0.2-0.1,0.3-0.1c0.1,0,0.2-0.1,0.3-0.2
		c0.1-0.1,0.2-0.1,0.3-0.2c0.1,0.1,0.1,0.1,0.2,0.2c0,0.1,0.1,0.1,0.1,0.2c0,0.1,0.1,0.2,0.1,0.3c0,0.1,0,0.2,0.1,0.4
		c0,0-0.1,0.1-0.1,0.2c-0.1,0.1-0.1,0.2-0.2,0.2c-0.1,0.1-0.2,0.2-0.3,0.3s-0.2,0.2-0.4,0.2c-0.1,0.1-0.3,0.1-0.5,0.2
		C28.3,18.1,28.1,18.2,27.9,18.2z"/>
	<path class="st1" d="M32.9,18.2c-0.4,0-0.7-0.1-1-0.3c-0.3-0.2-0.5-0.4-0.7-0.7s-0.3-0.6-0.4-1c-0.1-0.4-0.2-0.8-0.2-1.2
		c0-0.4,0-0.9,0.1-1.3c0.1-0.4,0.2-0.7,0.4-1s0.5-0.5,0.8-0.7c0.3-0.2,0.7-0.3,1.1-0.3c0.1,0,0.3,0,0.4,0c0.1,0,0.3,0,0.4,0.1
		c0.1,0,0.3,0.1,0.4,0.2c0.1,0.1,0.3,0.2,0.4,0.2c0.1,0.1,0.2,0.2,0.2,0.3c0.1,0.1,0.1,0.3,0.2,0.4c0,0.1,0.1,0.3,0.1,0.4
		c0,0.2,0,0.3,0,0.5c0,0.1,0,0.2,0,0.4c0,0.1,0,0.2,0,0.3c0,0-0.1,0.1-0.1,0.2c-0.1,0.1-0.1,0.2-0.2,0.2c-0.1,0.1-0.2,0.2-0.3,0.2
		c-0.1,0.1-0.2,0.1-0.3,0.2c-0.1,0-0.3,0-0.4,0c-0.3,0-0.5,0-0.8,0c-0.2,0-0.4-0.1-0.6-0.1c0,0.1,0,0.2,0.1,0.4
		c0,0.1,0.1,0.3,0.1,0.4s0.2,0.2,0.3,0.3c0.1,0.1,0.2,0.1,0.4,0.1c0,0,0,0,0.1,0c0,0,0,0,0.1,0c0.1,0,0.2,0,0.3-0.1
		c0.1,0,0.2-0.1,0.4-0.1c0.1,0,0.2-0.1,0.4-0.1c0.1-0.1,0.2-0.1,0.3-0.2c0.1,0.1,0.1,0.1,0.1,0.2c0,0.1,0.1,0.1,0.1,0.2
		c0,0.1,0.1,0.2,0.1,0.3c0,0.1,0,0.2,0,0.3c0,0-0.1,0.1-0.2,0.2c-0.1,0.1-0.2,0.2-0.3,0.2c-0.1,0.1-0.2,0.2-0.3,0.3
		c-0.1,0.1-0.3,0.2-0.4,0.2c-0.2,0.1-0.3,0.1-0.5,0.2C33.3,18.1,33.1,18.2,32.9,18.2z M33.6,14.4l-0.1-0.6c0,0-0.1-0.1-0.1-0.1
		c0,0-0.1,0-0.1-0.1c-0.1,0-0.1,0-0.2,0c-0.1,0-0.1,0-0.2,0c-0.1,0-0.2,0-0.3,0s-0.1,0-0.1,0.1c-0.1,0.1-0.1,0.2-0.1,0.4
		c0,0.1-0.1,0.3-0.1,0.4L33.6,14.4z"/>
	<path class="st1" d="M35.8,17.3c0-0.1,0-0.2,0-0.3c0-0.1,0-0.2,0.1-0.3c0-0.1,0.1-0.2,0.1-0.3c0-0.1,0.1-0.2,0.2-0.3
		c0.1,0.1,0.3,0.1,0.4,0.2s0.3,0.1,0.4,0.2c0.1,0.1,0.3,0.1,0.4,0.1c0.1,0,0.3,0,0.5,0c0.1,0,0.1,0,0.2,0c0,0,0,0,0-0.1s0-0.1,0-0.1
		c0,0,0-0.1,0-0.1c0,0,0-0.1-0.1-0.1c-0.2-0.1-0.3-0.2-0.5-0.3c-0.2-0.1-0.4-0.2-0.5-0.3c-0.2-0.1-0.3-0.2-0.5-0.3
		c-0.2-0.1-0.3-0.3-0.4-0.4c-0.1-0.2-0.2-0.3-0.3-0.5s-0.1-0.4-0.1-0.7c0-0.3,0-0.5,0.1-0.8c0.1-0.2,0.2-0.5,0.3-0.6
		c0.2-0.2,0.4-0.3,0.6-0.4c0.2-0.1,0.5-0.2,0.9-0.2c0.1,0,0.2,0,0.3,0c0.1,0,0.3,0,0.5,0c0.2,0,0.4,0.1,0.5,0.1s0.4,0.1,0.5,0.2
		c0,0.1,0,0.1,0,0.2c0,0.1,0,0.1,0,0.2c0,0.1,0,0.3,0,0.4c0,0.2,0,0.3-0.1,0.5c0,0.1-0.1,0.3-0.1,0.4c-0.1,0.1-0.1,0.2-0.2,0.3
		c-0.1-0.1-0.3-0.1-0.4-0.2c-0.1-0.1-0.3-0.1-0.4-0.2c-0.1-0.1-0.3-0.1-0.4-0.2c-0.1-0.1-0.3-0.1-0.4-0.1c-0.1,0-0.1,0.1-0.1,0.1
		c0,0.1-0.1,0.1-0.1,0.2c0,0.1,0,0.1,0,0.2c0,0,0.1,0.1,0.1,0.1c0,0,0.1,0.1,0.1,0.1c0,0,0.1,0.1,0.1,0.1c0.2,0.1,0.4,0.2,0.6,0.3
		c0.2,0.1,0.4,0.2,0.6,0.4c0.2,0.2,0.4,0.4,0.5,0.6c0.1,0.2,0.2,0.5,0.2,0.8c0,0.2,0,0.4-0.1,0.6c-0.1,0.2-0.1,0.3-0.2,0.5
		c-0.1,0.1-0.2,0.3-0.3,0.4c-0.1,0.1-0.3,0.2-0.4,0.2c-0.2,0.1-0.3,0.1-0.5,0.1c-0.2,0-0.4,0-0.6,0c-0.1,0-0.2,0-0.4,0
		c-0.1,0-0.3-0.1-0.5-0.1c-0.2-0.1-0.3-0.2-0.4-0.3C36,17.6,35.9,17.5,35.8,17.3z"/>
</g>
<g>
	<path class="st3" d="M16.1,23.5c-0.3,0-0.6-0.1-0.9-0.2c-0.2-0.1-0.4-0.3-0.6-0.5c-0.1-0.2-0.3-0.5-0.3-0.8c-0.1-0.3-0.1-0.6-0.1-1
		c0-0.2,0-0.4,0-0.6c0-0.2,0.1-0.4,0.2-0.6c0.1-0.2,0.2-0.3,0.3-0.5s0.2-0.3,0.4-0.4c0.1-0.1,0.3-0.2,0.5-0.2s0.4-0.1,0.6-0.1
		c0.1,0,0.3,0,0.4,0c0.2,0,0.3,0,0.5,0.1c0.1,0.1,0.2,0.1,0.3,0.2c0.1,0.1,0.2,0.2,0.2,0.3c0,0.1,0,0.2,0,0.3s0,0.2,0,0.3
		c0,0.1,0,0.2-0.1,0.3c0,0.1,0,0.2-0.1,0.3c0,0.1-0.1,0.2-0.1,0.3s-0.1,0.1-0.1,0.2c0,0,0,0-0.1,0c0,0,0,0-0.1,0c0,0,0,0-0.1,0
		c0,0-0.1,0-0.1,0c-0.1,0-0.2,0-0.3,0s-0.1,0-0.2-0.1l-0.1-1c-0.1,0-0.2,0-0.3,0s-0.2,0-0.3,0c0,0-0.1,0-0.1,0s-0.1,0-0.1,0
		c0,0.1-0.1,0.3-0.1,0.5c0,0.2,0,0.4,0,0.6c0,0,0,0.1,0,0.1c0,0,0,0.1,0,0.1c0,0.1,0,0.2,0,0.3c0,0.1,0,0.2,0,0.3
		c0,0.1,0,0.2,0.1,0.3c0,0.1,0,0.1,0.1,0.2c0,0.1,0.1,0.1,0.2,0.1c0.1,0,0.2,0,0.3,0c0.1,0,0.2,0,0.3,0c0.1,0,0.2,0,0.3-0.1
		c0.1,0,0.2-0.1,0.3-0.1s0.2-0.1,0.3-0.1c0,0,0.1,0.1,0.1,0.1c0,0,0.1,0.1,0.1,0.1c0,0.1,0.1,0.1,0.1,0.2s0,0.1,0.1,0.2
		c0,0,0,0.1-0.1,0.1c0,0-0.1,0.1-0.2,0.1s-0.1,0.1-0.2,0.2s-0.2,0.1-0.3,0.1s-0.2,0.1-0.4,0.1C16.4,23.5,16.2,23.5,16.1,23.5z"/>
	<path class="st3" d="M18.2,22.8c0-0.1,0-0.2,0-0.3c0-0.1,0-0.3,0-0.4c0-0.2,0-0.3,0-0.5s0-0.4,0-0.6c0-0.2,0-0.4,0-0.6
		c0-0.2,0-0.4,0-0.7l-0.4-0.1c0-0.1,0-0.1,0-0.2s0-0.1,0-0.1c0,0,0-0.1,0-0.1s0-0.1,0-0.2c0,0,0.1-0.1,0.1-0.1
		c0.1,0,0.1-0.1,0.2-0.1c0.1,0,0.2-0.1,0.3-0.1c0.1,0,0.2,0,0.3,0c0.3,0,0.5,0.1,0.6,0.2s0.2,0.3,0.2,0.6c0,0.1,0,0.2,0,0.4
		c0,0.1,0,0.3,0,0.5c0,0.2,0,0.4-0.1,0.6c0,0.2,0,0.4-0.1,0.6c0,0.2-0.1,0.4-0.1,0.6c0,0.2-0.1,0.4-0.1,0.6l0,0l0.5-0.2
		c0.1,0.1,0.1,0.2,0.2,0.2c0,0.1,0.1,0.2,0.1,0.3c-0.1,0.1-0.2,0.2-0.3,0.3c0,0-0.1,0.1-0.1,0.1c-0.1,0-0.1,0.1-0.2,0.1
		s-0.1,0-0.2,0.1c-0.1,0-0.1,0-0.2,0c-0.1,0-0.2,0-0.3,0s-0.2-0.1-0.2-0.1s-0.1-0.1-0.1-0.2C18.2,23.1,18.2,22.9,18.2,22.8z"/>
	<path class="st3" d="M21.7,23.5c-0.3,0-0.5,0-0.7-0.1c-0.2-0.1-0.4-0.2-0.5-0.4c-0.1-0.2-0.2-0.4-0.3-0.6c-0.1-0.2-0.1-0.5-0.1-0.7
		c0-0.3,0-0.5,0.1-0.8s0.2-0.4,0.3-0.6c0.1-0.2,0.3-0.3,0.5-0.4c0.2-0.1,0.5-0.1,0.7-0.1c0.3,0,0.6,0,0.8,0.1
		c0.2,0.1,0.4,0.2,0.5,0.4c0.1,0.2,0.2,0.4,0.2,0.6c0,0.2,0.1,0.5,0.1,0.7c0,0.3,0,0.5-0.1,0.7c-0.1,0.2-0.2,0.4-0.3,0.6
		c-0.1,0.2-0.3,0.3-0.5,0.4C22.2,23.5,21.9,23.5,21.7,23.5z M21.4,22.6C21.4,22.6,21.4,22.6,21.4,22.6c0.1,0,0.1,0.1,0.2,0.1
		c0,0,0.1,0,0.1,0s0.1,0,0.1,0c0,0,0.1,0,0.1,0c0,0,0.1,0,0.1,0c0-0.1,0.1-0.2,0.1-0.4c0-0.2,0-0.3,0-0.5c0-0.2,0-0.3,0-0.4
		s0-0.3-0.1-0.3c0,0-0.1,0-0.1-0.1c-0.1,0-0.1,0-0.2,0c-0.1,0-0.1,0-0.1,0c0,0-0.1,0-0.1,0c-0.1,0.1-0.1,0.2-0.1,0.3
		c0,0.1,0,0.3,0,0.4c0,0.2,0,0.3,0,0.5C21.3,22.3,21.4,22.4,21.4,22.6z"/>
	<path class="st3" d="M24,22.8c0-0.1,0-0.2,0-0.4c0-0.2,0-0.4,0-0.6c0-0.1,0-0.3,0-0.4s0-0.3,0-0.5l-0.3-0.1c0-0.1,0-0.1,0-0.1
		c0,0,0-0.1,0-0.1c0,0,0-0.1,0-0.1c0,0,0-0.1,0-0.1c0,0,0,0,0-0.1c0,0,0-0.1,0-0.1l0.4-0.1c0-0.1,0-0.1,0-0.2s0-0.1,0-0.2
		c0-0.1,0-0.1,0.1-0.2c0-0.1,0-0.1,0.1-0.2c0.1-0.1,0.1-0.1,0.2-0.1c0.1,0,0.2,0,0.3,0c0.1,0,0.2,0,0.3,0c0.1,0,0.2,0,0.2,0.1
		c0,0.1,0,0.2,0,0.2c0,0.1,0,0.2,0,0.2s0,0.2,0,0.2l0.5-0.1c0,0.1,0.1,0.1,0.1,0.2c0,0.1,0,0.1,0,0.2c0,0.1,0,0.1,0,0.2
		c0,0.1,0,0.1,0,0.2c0,0,0,0.1,0,0.1c0,0,0,0.1,0,0.1c0,0-0.1,0-0.2,0c-0.1,0-0.2,0-0.3,0c0,0.1,0,0.3,0,0.4c0,0.2,0,0.3-0.1,0.5
		c0,0.1,0,0.3-0.1,0.4c0,0.1,0,0.2,0,0.3l0,0l0.7-0.2c0.1,0.1,0.1,0.2,0.2,0.3s0.1,0.2,0.1,0.3c-0.1,0.1-0.2,0.2-0.4,0.3
		c-0.1,0-0.1,0.1-0.2,0.1c-0.1,0-0.1,0.1-0.2,0.1c-0.1,0-0.2,0.1-0.3,0.1c-0.1,0-0.2,0-0.3,0c-0.1,0-0.2,0-0.2,0s-0.1-0.1-0.2-0.1
		s-0.1-0.1-0.1-0.2C24,23.1,24,22.9,24,22.8z"/>
	<path class="st3" d="M26.4,23.4c0-0.1,0-0.2,0-0.2c0-0.1,0-0.2,0-0.3c0-0.1,0-0.3,0-0.4c0-0.1,0-0.2,0-0.4c0-0.2,0-0.3,0-0.5
		c0-0.2,0-0.3,0-0.5c0-0.2,0-0.4,0-0.5c0-0.2,0-0.3,0-0.5s0-0.3,0-0.4l-0.3-0.1c0-0.1,0-0.2-0.1-0.3c0-0.1,0-0.2,0-0.3
		c0,0,0.1-0.1,0.1-0.1c0.1,0,0.1-0.1,0.2-0.1c0.1,0,0.2-0.1,0.2-0.1s0.2,0,0.3,0c0.3,0,0.4,0.1,0.6,0.2c0.1,0.1,0.2,0.3,0.2,0.6
		c0,0.1,0,0.1,0,0.2c0,0.1,0,0.2,0,0.3c0,0.1,0,0.2,0,0.4c0,0.1,0,0.3,0,0.4c0,0.1,0,0.3-0.1,0.4c0,0.1,0,0.3-0.1,0.4c0,0,0,0,0,0
		c0,0,0,0,0,0c0,0,0,0,0,0c0-0.1,0.1-0.2,0.1-0.3c0-0.1,0.1-0.2,0.1-0.4c0-0.1,0.1-0.2,0.2-0.3c0.1-0.1,0.1-0.2,0.2-0.3
		c0.1-0.1,0.2-0.2,0.3-0.2c0.1-0.1,0.2-0.1,0.4-0.1c0.2,0,0.3,0,0.4,0.1c0.1,0.1,0.2,0.1,0.3,0.2c0.1,0.1,0.1,0.2,0.1,0.3
		s0,0.3,0,0.4c0,0.2,0,0.3,0,0.5c0,0.2-0.1,0.3-0.1,0.5c0,0.1-0.1,0.3-0.1,0.4c0,0.1-0.1,0.2-0.1,0.3l0,0l0.5-0.2
		c0.1,0.1,0.1,0.2,0.2,0.2c0,0.1,0.1,0.2,0.1,0.3c-0.1,0.1-0.2,0.2-0.3,0.3c0,0-0.1,0.1-0.1,0.1c-0.1,0-0.1,0.1-0.2,0.1
		c-0.1,0-0.1,0-0.2,0.1s-0.1,0-0.2,0c-0.1,0-0.2,0-0.2,0c-0.1,0-0.1-0.1-0.2-0.1c-0.1-0.1-0.1-0.1-0.1-0.2c0-0.1-0.1-0.2-0.1-0.3
		c0-0.1,0-0.2,0-0.4s0-0.3,0-0.4c0-0.2,0-0.3,0-0.4c0-0.1,0-0.3,0-0.3c0,0-0.1-0.1-0.1-0.1c0,0-0.1,0-0.1,0c0,0-0.1,0.1-0.1,0.1
		s-0.1,0.1-0.1,0.2c0,0.1-0.1,0.2-0.1,0.2c0,0.1-0.1,0.2-0.1,0.2c0,0.1-0.1,0.1-0.1,0.2c0,0.1,0,0.1-0.1,0.1c0,0,0,0,0,0
		c0,0,0,0,0,0c0,0.1,0,0.1,0,0.2s0,0.1,0,0.2c0,0.1,0,0.2,0.1,0.2c0,0.1,0,0.2,0.1,0.2c0,0.1-0.1,0.1-0.2,0.2
		c-0.1,0-0.3,0.1-0.4,0.1c-0.1,0-0.2,0-0.3,0c-0.1,0-0.1,0-0.2-0.1C26.5,23.4,26.4,23.4,26.4,23.4z"/>
	<path class="st3" d="M30.4,22.8c0-0.1,0-0.3,0-0.4s0-0.3,0-0.5c0-0.2,0-0.3,0-0.5c0-0.2,0-0.3,0-0.5l-0.4-0.1c0-0.1,0-0.2-0.1-0.3
		c0-0.1,0-0.2,0-0.3c0,0,0,0,0,0c0,0,0,0,0,0c0,0,0.1-0.1,0.1-0.1c0.1,0,0.1-0.1,0.2-0.1c0.1,0,0.2-0.1,0.3-0.1c0.1,0,0.2,0,0.3,0
		c0.1,0,0.3,0,0.4,0c0.1,0,0.2,0.1,0.2,0.1s0.1,0.1,0.1,0.2s0,0.2,0,0.3c0,0.1,0,0.2,0,0.3c0,0.1,0,0.2-0.1,0.4c0,0.1,0,0.3-0.1,0.4
		s-0.1,0.2-0.1,0.4c0,0.1-0.1,0.2-0.1,0.3c0,0.1-0.1,0.2-0.1,0.2l0,0l0.5-0.2c0.1,0.1,0.1,0.1,0.2,0.2c0,0.1,0.1,0.2,0.1,0.3
		c-0.1,0.1-0.2,0.2-0.3,0.3c0,0-0.1,0.1-0.1,0.1c-0.1,0-0.1,0.1-0.2,0.1c-0.1,0-0.1,0-0.2,0.1s-0.1,0-0.2,0c-0.1,0-0.2,0-0.2,0
		c-0.1,0-0.1-0.1-0.2-0.1s-0.1-0.1-0.1-0.2C30.4,23.1,30.4,23,30.4,22.8z M31,19.7c-0.1,0-0.2,0-0.3-0.1c-0.1,0-0.2-0.1-0.2-0.1
		c-0.1-0.1-0.1-0.1-0.2-0.2c0-0.1-0.1-0.1-0.1-0.2c0-0.1,0-0.2,0-0.2c0-0.1,0.1-0.1,0.1-0.2s0.1-0.1,0.2-0.1c0.1,0,0.2,0,0.3,0
		c0.1,0,0.3,0,0.3,0c0.1,0,0.2,0.1,0.2,0.1c0.1,0.1,0.1,0.1,0.1,0.2c0,0.1,0,0.2,0,0.2c0,0.1,0,0.2-0.1,0.2c0,0.1-0.1,0.1-0.2,0.2
		c-0.1,0-0.1,0.1-0.2,0.1C31.2,19.7,31.1,19.7,31,19.7z"/>
	<path class="st3" d="M32.7,23.4c0-0.1,0-0.2,0-0.2c0-0.1,0-0.2,0-0.3c0-0.1,0-0.3,0-0.4c0-0.2,0-0.3,0-0.4c0-0.1,0-0.2,0-0.3
		s0-0.2,0-0.3c0-0.1,0-0.3,0-0.4l-0.4,0c0-0.1,0-0.1-0.1-0.2c0-0.1,0-0.1,0-0.2c0-0.1,0-0.1,0-0.2c0-0.1,0-0.1,0-0.2
		c0,0,0.1,0,0.1-0.1s0.1-0.1,0.2-0.1s0.1-0.1,0.2-0.1c0.1,0,0.2,0,0.3,0c0.1,0,0.2,0,0.3,0c0.1,0,0.2,0.1,0.2,0.1s0.1,0.1,0.1,0.2
		s0,0.2,0,0.3c0,0.1,0,0.1,0,0.2c0,0.1,0,0.2,0,0.3c0,0.1,0,0.2,0,0.3c0,0.1,0,0.1,0,0.2c0,0,0,0.1,0,0.1c0,0,0,0,0,0c0,0,0,0,0,0
		c0,0,0,0,0,0c0-0.1,0.1-0.2,0.1-0.3c0-0.1,0.1-0.2,0.1-0.4c0-0.1,0.1-0.2,0.2-0.3c0.1-0.1,0.1-0.2,0.2-0.3c0.1-0.1,0.2-0.2,0.3-0.2
		s0.2-0.1,0.4-0.1c0.2,0,0.3,0,0.4,0.1c0.1,0.1,0.2,0.1,0.3,0.2c0.1,0.1,0.1,0.2,0.1,0.3s0,0.3,0,0.4c0,0.2,0,0.3,0,0.5
		c0,0.2-0.1,0.3-0.1,0.5c0,0.1-0.1,0.3-0.1,0.4c0,0.1-0.1,0.2-0.1,0.3l0,0l0.4-0.2c0.1,0.1,0.1,0.2,0.2,0.2c0,0.1,0.1,0.2,0.1,0.3
		c-0.1,0.1-0.2,0.2-0.3,0.3c0,0-0.1,0.1-0.1,0.1c-0.1,0-0.1,0.1-0.2,0.1c-0.1,0-0.1,0-0.2,0.1c-0.1,0-0.1,0-0.2,0
		c-0.1,0-0.2,0-0.2,0s-0.1-0.1-0.2-0.1c-0.1-0.1-0.1-0.1-0.1-0.2c0-0.1-0.1-0.2-0.1-0.3c0-0.1,0-0.2,0-0.4c0-0.1,0-0.3,0-0.4
		s0-0.3,0-0.4c0-0.1,0-0.3,0-0.3c0,0-0.1-0.1-0.1-0.1c0,0-0.1,0-0.1,0c0,0-0.1,0.1-0.1,0.1s-0.1,0.1-0.1,0.2c0,0.1-0.1,0.2-0.1,0.2
		c0,0.1-0.1,0.2-0.1,0.2c0,0.1-0.1,0.1-0.1,0.2c0,0.1,0,0.1-0.1,0.1c0,0,0,0,0,0c0,0,0,0,0,0c0,0.1,0,0.1,0,0.2s0,0.1,0,0.2
		c0,0.1,0,0.2,0.1,0.2c0,0.1,0,0.2,0.1,0.2c0,0.1-0.1,0.1-0.2,0.2c-0.1,0-0.3,0.1-0.4,0.1c-0.1,0-0.2,0-0.3,0c-0.1,0-0.1,0-0.2-0.1
		C32.7,23.4,32.7,23.4,32.7,23.4z"/>
	<path class="st3" d="M36.8,23.6c0.1,0.1,0.3,0.2,0.4,0.2c0.1,0.1,0.3,0.1,0.4,0.1c0.1,0,0.2,0.1,0.3,0.1c0.1,0,0.2,0,0.3,0
		c0.1,0,0.1,0,0.2,0c0.1,0,0.1,0,0.1,0c0,0,0.1-0.1,0.1-0.1c0,0,0-0.1,0-0.1c0,0,0-0.1,0-0.1c0,0,0,0,0,0c-0.1,0-0.2,0-0.4,0
		c-0.1,0-0.3,0-0.4,0s-0.3,0-0.4,0c-0.1,0-0.2-0.1-0.3-0.1c-0.1-0.1-0.2-0.1-0.2-0.2c-0.1-0.1-0.1-0.2-0.1-0.4c0-0.1,0-0.1,0-0.2
		c0-0.1,0-0.1,0.1-0.2s0.1-0.1,0.1-0.1c0,0,0.1-0.1,0.1-0.1c-0.1,0-0.2-0.1-0.3-0.2s-0.2-0.1-0.2-0.2s-0.1-0.2-0.2-0.3
		c0-0.1-0.1-0.3-0.1-0.4s0-0.3,0.1-0.4s0.1-0.2,0.2-0.3c0.1-0.1,0.2-0.2,0.3-0.2s0.2-0.1,0.3-0.1c0.1,0,0.2-0.1,0.3-0.1
		c0.1,0,0.2,0,0.3,0c0.1,0,0.3,0,0.4,0c0.1,0,0.3,0.1,0.4,0.1l-0.1-0.8c0.1,0,0.1-0.1,0.2-0.1c0.1,0,0.2,0,0.2,0c0.1,0,0.1,0,0.2,0
		c0.1,0,0.1,0,0.2,0c0.1,0,0.1,0,0.2,0.1c0,0,0.1,0.1,0.1,0.1c0,0,0,0.1,0,0.1c0,0.1,0,0.1,0,0.2c0,0.1,0,0.2-0.1,0.3
		c0,0.1-0.1,0.2-0.1,0.3s-0.1,0.2-0.2,0.3c0,0.1,0.1,0.1,0.1,0.2s0,0.2,0,0.2c0,0.1,0,0.2,0,0.3s-0.1,0.2-0.1,0.3
		c0,0.1-0.1,0.2-0.2,0.3c-0.1,0.1-0.2,0.2-0.3,0.2c-0.1,0.1-0.2,0.1-0.4,0.2c-0.1,0-0.3,0.1-0.5,0.1c-0.1,0-0.2,0-0.3,0
		c0,0.1,0,0.1,0,0.2c0,0.1,0,0.1,0.1,0.2c0.1,0,0.2,0,0.3-0.1c0.1,0,0.2,0,0.3,0c0,0,0.1,0,0.1,0c0,0,0.1,0,0.1,0c0.1,0,0.2,0,0.3,0
		c0.1,0,0.2,0,0.3,0c0.1,0,0.2,0.1,0.2,0.1c0.1,0,0.1,0.1,0.1,0.2c0,0.1,0.1,0.1,0.1,0.2c0,0.1,0,0.2,0,0.3c0,0.2,0,0.3-0.1,0.4
		c-0.1,0.1-0.1,0.2-0.2,0.3c-0.1,0.1-0.2,0.2-0.3,0.3s-0.3,0.1-0.4,0.2c-0.1,0-0.3,0.1-0.5,0.1c-0.2,0-0.3,0-0.5,0
		c-0.1,0-0.2,0-0.4,0c-0.1,0-0.3-0.1-0.4-0.1c-0.1-0.1-0.2-0.1-0.3-0.2s-0.2-0.2-0.2-0.4C36.5,23.8,36.6,23.7,36.8,23.6z M37.5,21.6
		C37.5,21.6,37.6,21.6,37.5,21.6c0.1,0,0.2,0.1,0.2,0.1c0,0,0.1,0,0.1,0c0,0,0.1,0,0.1,0c0.1,0,0.1,0,0.2,0c0,0,0.1,0,0.1,0
		c0-0.1,0-0.1,0.1-0.2c0-0.1,0-0.1,0-0.2c0-0.1,0-0.1,0-0.2c0-0.1,0-0.1-0.1-0.1c0,0,0,0-0.1,0c0,0-0.1,0-0.1,0c0,0-0.1,0-0.1,0
		s-0.1,0-0.1,0c-0.1,0-0.1,0-0.2,0c0,0-0.1,0-0.1,0c0,0.1-0.1,0.1-0.1,0.2c0,0.1,0,0.1,0,0.2c0,0.1,0,0.1,0,0.2
		C37.5,21.5,37.5,21.5,37.5,21.6z"/>
</g>
<g>
	<path class="st3" d="M27.3,29.1C27.3,29.1,27.3,29.1,27.3,29.1c0-0.1,0-0.1,0-0.1c0-0.1,0-0.2,0-0.3c0-0.1,0.1-0.2,0.1-0.3
		c0.1,0,0.2,0.1,0.3,0.1c0.1,0,0.2,0.1,0.3,0.1c0.1,0,0.2,0.1,0.3,0.1c0.1,0,0.2,0,0.3,0c0,0,0.1,0,0.1,0c0,0,0.1,0,0.1,0
		c0,0,0,0,0-0.1c0,0,0-0.1,0-0.1c0-0.1,0-0.1-0.1-0.2c0,0-0.1-0.1-0.1-0.1c-0.1,0-0.1-0.1-0.2-0.1c-0.1,0-0.1-0.1-0.1-0.1
		c-0.1-0.1-0.3-0.2-0.4-0.2c-0.1-0.1-0.2-0.2-0.4-0.3c-0.1-0.1-0.2-0.2-0.3-0.4c-0.1-0.2-0.1-0.3-0.1-0.5c0-0.2,0-0.3,0.1-0.5
		c0-0.2,0.1-0.3,0.2-0.4c0.1-0.1,0.2-0.2,0.4-0.3c0.2-0.1,0.3-0.1,0.6-0.1c0,0,0.1,0,0.1,0c0.1,0,0.1,0,0.2,0c0.1,0,0.2,0,0.2,0
		c0.1,0,0.2,0,0.3,0c0.1,0.1,0.1,0.1,0.2,0.2c0.1,0.1,0.1,0.1,0.2,0.2c0,0.1,0,0.2,0,0.3c0,0.1,0,0.2-0.1,0.3c0,0.1,0,0.2-0.1,0.3
		c0,0.1-0.1,0.1-0.1,0.2c0,0-0.1,0-0.1,0c0,0-0.1,0-0.2,0c-0.1,0-0.1,0-0.2,0c0,0-0.1,0-0.1-0.1l-0.1-0.6c-0.1,0-0.1,0-0.2,0
		c-0.1,0-0.1,0-0.2,0c0,0-0.1,0-0.1,0c0,0-0.1,0-0.1,0c-0.1,0-0.1,0.1-0.1,0.1c0,0.1,0,0.1,0,0.2c0,0.1,0,0.1,0.1,0.2
		c0,0.1,0.1,0.1,0.1,0.1c0.1,0,0.1,0.1,0.2,0.1c0.1,0,0.1,0.1,0.2,0.1c0.1,0.1,0.3,0.2,0.4,0.2c0.1,0.1,0.2,0.2,0.3,0.3
		c0.1,0.1,0.2,0.2,0.2,0.3c0.1,0.1,0.1,0.3,0.1,0.5c0,0.1,0,0.3,0,0.4c0,0.1-0.1,0.2-0.1,0.3s-0.1,0.2-0.2,0.2
		c-0.1,0.1-0.2,0.1-0.2,0.2c-0.1,0-0.2,0.1-0.3,0.1c-0.1,0-0.3,0-0.4,0c-0.1,0-0.1,0-0.2,0c-0.1,0-0.2,0-0.3-0.1
		c-0.1,0-0.2-0.1-0.3-0.2C27.4,29.3,27.3,29.2,27.3,29.1z"/>
	<path class="st3" d="M30.2,29c0-0.1,0-0.2,0-0.4c0-0.2,0-0.3,0-0.5c0-0.1,0-0.2,0-0.4c0-0.1,0-0.3,0-0.4l-0.3-0.1c0,0,0-0.1,0-0.1
		c0,0,0-0.1,0-0.1c0,0,0-0.1,0-0.1c0,0,0-0.1,0-0.1c0,0,0,0,0-0.1c0,0,0,0,0-0.1l0.4-0.1c0-0.1,0-0.1,0-0.2c0-0.1,0-0.1,0-0.2
		c0-0.1,0-0.1,0-0.2c0-0.1,0-0.1,0.1-0.1c0.1,0,0.1-0.1,0.2-0.1s0.2,0,0.2,0c0.1,0,0.1,0,0.2,0c0.1,0,0.1,0,0.2,0.1
		c0,0.1,0,0.1,0,0.2c0,0.1,0,0.1,0,0.2c0,0.1,0,0.1,0,0.2l0.4-0.1c0,0.1,0.1,0.1,0.1,0.2c0,0.1,0,0.1,0,0.2c0,0.1,0,0.1,0,0.2
		c0,0.1,0,0.1,0,0.1c0,0,0,0.1,0,0.1c0,0,0,0.1,0,0.1c0,0-0.1,0-0.2,0c-0.1,0-0.2,0-0.3,0c0,0.1,0,0.3,0,0.4c0,0.1,0,0.3,0,0.4
		c0,0.1,0,0.2,0,0.3s0,0.2,0,0.2l0,0l0.6-0.2c0.1,0.1,0.1,0.1,0.1,0.2c0,0.1,0.1,0.2,0.1,0.3c-0.1,0.1-0.2,0.2-0.3,0.3
		c0,0-0.1,0.1-0.2,0.1c-0.1,0-0.1,0.1-0.2,0.1c-0.1,0-0.1,0.1-0.2,0.1c-0.1,0-0.1,0-0.2,0c-0.1,0-0.1,0-0.2,0
		c-0.1,0-0.1-0.1-0.2-0.1c0,0-0.1-0.1-0.1-0.2C30.2,29.2,30.2,29.1,30.2,29z"/>
	<path class="st3" d="M33.2,29.6c-0.2,0-0.4,0-0.6-0.1c-0.2-0.1-0.3-0.2-0.4-0.3C32.1,29,32,28.8,32,28.6c0-0.2-0.1-0.4-0.1-0.6
		c0-0.2,0-0.5,0.1-0.7c0.1-0.2,0.1-0.4,0.2-0.5c0.1-0.1,0.2-0.3,0.4-0.3c0.2-0.1,0.4-0.1,0.6-0.1c0.3,0,0.5,0,0.6,0.1
		c0.2,0.1,0.3,0.2,0.4,0.3c0.1,0.1,0.2,0.3,0.2,0.5c0,0.2,0.1,0.4,0.1,0.7c0,0.2,0,0.4-0.1,0.6c-0.1,0.2-0.1,0.4-0.2,0.5
		c-0.1,0.1-0.2,0.3-0.4,0.3S33.4,29.6,33.2,29.6z M33,28.8C33,28.8,33,28.8,33,28.8c0.1,0,0.1,0,0.1,0.1c0,0,0.1,0,0.1,0
		c0,0,0.1,0,0.1,0c0,0,0.1,0,0.1,0c0,0,0,0,0.1,0c0-0.1,0.1-0.2,0.1-0.3c0-0.1,0-0.3,0-0.4c0-0.1,0-0.3,0-0.4s0-0.2-0.1-0.3
		c0,0-0.1,0-0.1-0.1s-0.1,0-0.2,0c0,0-0.1,0-0.1,0c0,0-0.1,0-0.1,0c0,0.1-0.1,0.2-0.1,0.3c0,0.1,0,0.2,0,0.4c0,0.1,0,0.3,0,0.4
		C32.9,28.5,32.9,28.7,33,28.8z"/>
	<path class="st3" d="M35,29C35,29,35,29,35,29c0-0.1,0-0.1,0-0.2c0-0.1,0-0.2,0-0.3c0-0.1,0-0.2,0-0.4c0-0.1,0-0.3,0-0.4
		c0-0.1,0-0.3,0-0.4l-0.2,0c0-0.1-0.1-0.2-0.1-0.3c0-0.1,0-0.2,0-0.3c0,0,0,0,0,0c0,0,0,0,0,0c0,0,0,0,0.1-0.1c0,0,0.1-0.1,0.1-0.1
		c0.1,0,0.1-0.1,0.2-0.1c0.1,0,0.1,0,0.2,0c0.1,0,0.2,0,0.3,0c0.1,0,0.1,0.1,0.2,0.1c0,0,0.1,0.1,0.1,0.2c0,0.1,0,0.1,0,0.2
		c0,0.1,0,0.1,0,0.2c0,0.1,0,0.2,0,0.2c0,0.1,0,0.1,0,0.2c0,0.1,0,0.1,0,0.2l0.1,0l0.1-0.6c0-0.1,0.1-0.3,0.1-0.4
		c0-0.1,0.1-0.2,0.1-0.2s0.1-0.1,0.2-0.1c0.1,0,0.1,0,0.2,0c0,0,0.1,0,0.1,0c0,0,0.1,0,0.1,0c0,0,0.1,0,0.1,0s0.1,0,0.1,0.1
		c0,0.1,0,0.1,0.1,0.2c0,0.1,0,0.2,0,0.2c0,0.1,0,0.1,0,0.2c0,0.1,0,0.1,0,0.2c0,0.1,0,0.1,0,0.2s0,0.1,0,0.1l-0.5-0.1
		c-0.1,0.1-0.1,0.1-0.2,0.2c-0.1,0.1-0.1,0.2-0.2,0.3s-0.1,0.2-0.2,0.3c0,0.1-0.1,0.2-0.1,0.3l0,0.1l0.5-0.1c0,0.1,0.1,0.1,0.1,0.2
		c0,0.1,0,0.2,0,0.3c-0.1,0.1-0.1,0.2-0.2,0.2c-0.1,0.1-0.2,0.1-0.3,0.2c-0.1,0-0.2,0.1-0.3,0.1c-0.1,0-0.1,0-0.2,0
		c-0.1,0-0.1-0.1-0.2-0.1c-0.1,0-0.1-0.1-0.1-0.2C35.1,29.2,35.1,29.1,35,29z"/>
	<path class="st3" d="M38.5,29.6c-0.2,0-0.4,0-0.5-0.1c-0.2-0.1-0.3-0.2-0.4-0.3s-0.2-0.3-0.2-0.5c-0.1-0.2-0.1-0.4-0.1-0.6
		c0-0.2,0-0.4,0.1-0.6c0.1-0.2,0.1-0.4,0.2-0.5c0.1-0.1,0.2-0.3,0.4-0.3c0.2-0.1,0.4-0.1,0.6-0.1c0.1,0,0.1,0,0.2,0
		c0.1,0,0.1,0,0.2,0c0.1,0,0.1,0,0.2,0.1c0.1,0,0.1,0.1,0.2,0.1c0.1,0,0.1,0.1,0.1,0.2c0,0.1,0.1,0.1,0.1,0.2c0,0.1,0,0.1,0,0.2
		c0,0.1,0,0.2,0,0.2c0,0.1,0,0.1,0,0.2c0,0.1,0,0.1,0,0.2c0,0,0,0.1-0.1,0.1c0,0-0.1,0.1-0.1,0.1c0,0-0.1,0.1-0.2,0.1
		c-0.1,0-0.1,0.1-0.2,0.1c-0.1,0-0.1,0-0.2,0c-0.1,0-0.3,0-0.4,0s-0.2,0-0.3,0c0,0.1,0,0.1,0,0.2c0,0.1,0,0.1,0.1,0.2
		c0,0.1,0.1,0.1,0.1,0.1c0.1,0,0.1,0.1,0.2,0.1c0,0,0,0,0,0c0,0,0,0,0,0c0.1,0,0.1,0,0.2,0c0.1,0,0.1,0,0.2-0.1c0.1,0,0.1,0,0.2-0.1
		c0.1,0,0.1-0.1,0.2-0.1c0,0,0.1,0.1,0.1,0.1c0,0,0,0.1,0.1,0.1c0,0,0,0.1,0,0.1c0,0,0,0.1,0,0.2c0,0,0,0.1-0.1,0.1
		c0,0-0.1,0.1-0.1,0.1c-0.1,0-0.1,0.1-0.2,0.1c-0.1,0-0.1,0.1-0.2,0.1c-0.1,0-0.2,0.1-0.3,0.1C38.7,29.6,38.6,29.6,38.5,29.6z
		 M38.8,27.7l0-0.3c0,0,0,0-0.1,0c0,0,0,0-0.1,0s-0.1,0-0.1,0c0,0-0.1,0-0.1,0c0,0-0.1,0-0.1,0c0,0-0.1,0-0.1,0c0,0.1,0,0.1-0.1,0.2
		c0,0.1,0,0.1,0,0.2L38.8,27.7z"/>
</g>
</svg>
