<?xml version="1.0" encoding="utf-8"?>
<!-- Generator: Adobe Illustrator 25.2.0, SVG Export Plug-In . SVG Version: 6.00 Build 0)  -->
<svg version="1.1" id="Layer_1" xmlns="http://www.w3.org/2000/svg" xmlns:xlink="http://www.w3.org/1999/xlink" x="0px" y="0px"
	 viewBox="0 0 113.5 32" style="enable-background:new 0 0 113.5 32;" xml:space="preserve">
<style type="text/css">
	.st0{fill:#EF5F23;}
	.st1{fill:#17499F;}
	.st2{fill:#FCFDFC;}
	.st3{fill:#EF5F24;}
</style>
<desc>Created with Sketch.</desc>
<g>
	<path class="st0" d="M37.5,26.4c-1.4,0-2.7,0-4.1,0c-3.3,0.1-6.6,0.4-9.9,0.9c-4.3,0.6-8.6,1.4-12.8,2.5c-2.3,0.6-4.6,1.2-6.9,1.9
		c-0.3,0.1-0.4,0-0.4-0.3s0-0.5,0-0.8c0-0.4,0.1-0.5,0.4-0.6c3.4-0.9,6.9-1.6,10.4-2.1c3.3-0.5,6.5-1,9.8-1.3
		c4.4-0.4,8.9-0.6,13.3-0.4C37.5,26.3,37.5,26.4,37.5,26.4z"/>
	<path class="st1" d="M26.8,25.9c-2.8,0-5.6,0.1-8.3,0.3C14,26.5,9.6,27,5.2,27.8c-0.3,0.1-0.4,0-0.3-0.3c0.2-3.6,0.4-7.2,0.6-10.9
		C5.7,13.2,5.9,9.8,6,6.5c0-0.3,0.1-0.3,0.3-0.3c0.5,0,1,0,1.6,0h11.3l-11.3-1c-0.3,0-0.7-0.1-1-0.1C5.9,5.1,5,5,4.1,4.9
		c-0.2,0-0.3,0-0.3,0.2c-0.3,2-0.7,4-1,5.9c-0.6,3.8-1.3,7.6-1.9,11.4c-0.3,1.6-0.5,3.3-0.8,4.9c0,0.1-0.1,0.3,0.2,0.3
		c1.1,0.2,2,0.7,2.8,1.5c0.1,0.1,0.2,0.2,0.4,0.2c3-0.7,6-1.3,9-1.8c3.1-0.5,6.3-1,9.4-1.3c1.8-0.2,3.6-0.3,5.4-0.4
		C27.1,25.9,27,25.9,26.8,25.9z"/>
	<path class="st2" d="M2.9,19.7c-0.3,1.8-0.7,3.5-1,5.3c-0.1,0.6-0.2,1.3-0.4,1.9c0,0.1,0,0.3-0.2,0.2c-0.2-0.1-0.4,0-0.3-0.4
		c0.2-1.2,0.4-2.4,0.5-3.6c0.4-2.6,0.7-5.2,1.1-7.8s0.7-5.1,1.1-7.7C3.8,7,3.9,6.3,4,5.6c0-0.3,0.2-0.3,0.4-0.3
		c0.3,0,0.2,0.2,0.2,0.4C4.4,9,4.2,12.4,4,15.7C3.7,19.8,3.5,23.9,3.3,28c0,0.1,0,0.2,0,0.3c-0.2-0.2-0.4-0.4-0.6-0.5
		s-0.1-0.3-0.1-0.4c0.1-2,0.2-3.9,0.4-5.9C2.8,20.9,2.9,20.3,2.9,19.7L2.9,19.7z"/>
	<path class="st3" d="M17.4,8.2c0,0.2,0.1,0.2,0.2,0.3c0.4,0.4,0.5,1,0.1,1.4c-0.3,0.4-1,0.4-1.3,0c-0.4-0.4-0.4-1,0.1-1.4
		c0.1-0.1,0.2-0.3,0.2-0.5c0-0.5,0.1-3.1,0-3.7c-0.3-1.7-1.5-2.9-3.2-3.2C11,0.7,8.8,2.6,8.9,5c0,0.5-0.1,2.6-0.1,3.2
		c0,0.2,0.1,0.2,0.2,0.3c0.4,0.4,0.4,1,0.1,1.4c-0.3,0.3-1,0.3-1.3,0c-0.4-0.4-0.3-1,0.1-1.3C8,8.4,8,8.2,8,8c0-0.6-0.1-3.9,0.4-5.1
		c0.9-1.9,3-3,5.1-2.6c2,0.3,3.7,2.1,3.9,4.1c0,0.4,0.1,0.8,0,1.2"/>
</g>
<g>
	<path class="st1" d="M22.1,25c-1.1,0-1.9-0.2-2.7-0.6c-0.7-0.4-1.3-1-1.8-1.8c-0.4-0.8-0.8-1.7-1-2.7c-0.2-1.1-0.3-2.3-0.3-3.6
		c0-0.8,0.1-1.6,0.2-2.3c0-0.7,0.2-1.4,0.4-2s0.4-1.2,0.8-1.8c0.4-0.5,0.7-1,1.2-1.3c0.4-0.4,1-0.7,1.5-0.9c0.5-0.2,1.2-0.4,1.9-0.4
		c0.4,0,0.9,0,1.3,0.1s1,0.2,1.6,0.4c0.3,0.2,0.6,0.4,0.8,0.7c0.3,0.3,0.5,0.5,0.8,1c0,0.3,0,0.5-0.1,1c0,0.4-0.1,0.7-0.1,1.2
		c-0.1,0.4-0.1,0.8-0.2,1.2s-0.2,0.8-0.3,1.2s-0.2,0.7-0.3,1c-0.1,0.3-0.2,0.4-0.3,0.6c-0.1,0.1-0.1,0.1-0.2,0.1s-0.1-0.1-0.2,0
		c-0.1,0-0.2,0-0.3,0.1c-0.1,0-0.2,0-0.4,0c-0.3,0-0.5,0-0.8-0.1S23.2,16,23,15.9v-4c-0.3-0.1-0.6-0.2-0.9-0.2c-0.4,0-0.6,0-1,0
		c-0.1,0-0.2,0-0.3,0s-0.2,0-0.3,0c-0.2,0.5-0.3,1.2-0.4,1.9S20,15,20,15.8c0,0.2,0,0.4,0,0.4c0,0.2,0,0.4,0,0.4c0,0.4,0,0.9,0,1.2
		c0,0.4,0.1,0.8,0.1,1.2c0.1,0.4,0.1,0.7,0.2,1s0.2,0.5,0.3,0.7s0.3,0.4,0.5,0.4c0.2,0.1,0.5,0.2,0.9,0.2s0.6,0,1-0.1
		s0.6-0.2,0.9-0.3s0.5-0.3,0.8-0.4c0.3-0.2,0.5-0.4,0.8-0.5c0.1,0.2,0.3,0.4,0.4,0.4c0.1,0.2,0.3,0.4,0.4,0.5
		c0.1,0.2,0.2,0.4,0.3,0.6c0.1,0.3,0.1,0.5,0.2,0.8c0,0.1-0.1,0.2-0.3,0.4c-0.1,0.2-0.3,0.4-0.4,0.5c-0.2,0.2-0.4,0.4-0.7,0.6
		c-0.3,0.2-0.6,0.4-0.9,0.5c-0.4,0.2-0.7,0.3-1.2,0.4C23,25,22.5,25,22.1,25z"/>
	<path class="st1" d="M28.6,24.4c0-0.3-0.1-0.5-0.1-0.9c0-0.3,0-0.6-0.1-1.1c0-0.4,0-1,0-1.5c0-0.4,0-0.8,0-1.4s0-1.2,0-1.9
		c0-0.6,0-1.2,0-1.9c0-0.7,0-1.3,0-1.9c0-0.6,0-1.2,0.1-1.8c0-0.5,0.1-1.1,0.1-1.4l-1.1-0.3c-0.1-0.4-0.2-0.7-0.2-1.1
		S27.2,8.5,27.2,8c0.1-0.1,0.2-0.2,0.4-0.4s0.4-0.3,0.5-0.4c0.2-0.2,0.4-0.3,0.7-0.4c0.3-0.1,0.5-0.2,0.8-0.2c0.8,0,1.3,0.3,1.7,0.7
		c0.4,0.4,0.5,1.2,0.5,2.1c0,0.2,0,0.4,0,0.8s0,0.7-0.1,1.2c0,0.4-0.1,0.9-0.1,1.4s-0.1,1.1-0.2,1.5c-0.1,0.5-0.1,1.1-0.2,1.6
		c-0.1,0.5-0.2,1-0.3,1.4c0,0.1,0,0.1,0.1,0.1c0,0,0.1,0.1,0.2,0.1s0.1,0,0.1-0.1c0.1-0.4,0.2-0.8,0.3-1.2c0.1-0.4,0.3-0.9,0.4-1.3
		c0.2-0.4,0.3-0.9,0.5-1.2c0.2-0.4,0.4-0.8,0.6-1.1c0.3-0.4,0.5-0.5,0.9-0.7s0.7-0.3,1.2-0.3s1,0.1,1.3,0.4c0.4,0.2,0.6,0.5,0.9,0.9
		c0.2,0.4,0.4,0.8,0.4,1.2C38,14.6,38,15,38,15.6s-0.1,1.2-0.2,1.9c-0.1,0.6-0.2,1.2-0.4,1.8c-0.1,0.5-0.3,1.1-0.4,1.4
		c-0.1,0.4-0.3,0.8-0.3,1.1l0,0l1.4-0.7c0.3,0.3,0.4,0.5,0.6,0.9c0.2,0.4,0.3,0.7,0.3,1.1c-0.3,0.4-0.5,0.8-0.8,1.1
		c-0.1,0.2-0.3,0.3-0.4,0.4s-0.4,0.3-0.5,0.4c-0.2,0.1-0.4,0.2-0.6,0.3s-0.4,0.1-0.7,0.1s-0.5,0-0.7-0.1c-0.3-0.1-0.4-0.2-0.6-0.4
		c-0.2-0.2-0.4-0.4-0.4-0.8c-0.1-0.4-0.2-0.7-0.2-1.2c0-0.4,0-0.9,0-1.4s0-1.1,0.1-1.6c0-0.5,0.1-1.1,0.1-1.6s0.1-1,0.1-1.2
		c-0.1-0.1-0.2-0.2-0.3-0.3c-0.1-0.1-0.2-0.1-0.3-0.1c-0.1,0.1-0.2,0.3-0.3,0.5c-0.1,0.3-0.3,0.4-0.4,0.7c-0.1,0.3-0.3,0.5-0.4,0.9
		c-0.1,0.3-0.3,0.6-0.4,0.9c-0.1,0.3-0.2,0.5-0.3,0.7c-0.1,0.3-0.2,0.4-0.2,0.5c0,0,0,0.1,0,0.2s0,0.1,0,0.2c0,0.2,0,0.4,0,0.7
		c0,0.3,0.1,0.5,0.1,0.8s0.1,0.6,0.2,0.9c0.1,0.3,0.1,0.6,0.2,0.9c-0.1,0.3-0.4,0.4-0.7,0.6c-0.4,0.2-0.8,0.3-1.3,0.3
		c-0.4,0-0.7,0-1-0.1c0-0.4-0.2-0.4-0.3-0.5C28.7,24.6,28.7,24.5,28.6,24.4z"/>
	<path class="st1" d="M44.8,25c-0.9,0-1.7-0.2-2.2-0.5c-0.6-0.4-1.1-0.8-1.5-1.4s-0.6-1.3-0.8-2.1S40,19.2,40,18.3
		c0-1,0.1-1.9,0.3-2.7s0.5-1.5,0.9-2.1c0.4-0.6,1-1.1,1.6-1.3c0.6-0.4,1.4-0.4,2.2-0.4c1,0,1.8,0.2,2.4,0.5c0.6,0.4,1.2,0.8,1.5,1.4
		c0.4,0.6,0.6,1.3,0.8,2.1s0.2,1.8,0.2,2.7c0,1-0.1,1.8-0.3,2.7c-0.2,0.9-0.5,1.5-1,2.1c-0.4,0.6-1,1.1-1.6,1.4
		C46.3,24.9,45.6,25,44.8,25z M44,21.4c0,0.1,0.1,0.1,0.2,0.2c0.1,0,0.2,0.1,0.3,0.1s0.3,0,0.4,0.1c0.1,0,0.3,0,0.4,0
		c0.2,0,0.3,0,0.4,0c0.1,0,0.2,0,0.2-0.1c0.2-0.4,0.3-0.7,0.4-1.3c0.1-0.5,0.1-1.2,0.1-1.8c0-0.5,0-1.1-0.1-1.6s-0.2-0.9-0.3-1.2
		c-0.1-0.1-0.2-0.2-0.4-0.2c-0.2-0.1-0.4-0.1-0.6-0.1c-0.2,0-0.4,0-0.4,0c-0.2,0-0.3,0.1-0.3,0.1c-0.2,0.4-0.3,0.7-0.4,1.2
		s-0.1,1-0.1,1.4c0,0.5,0,1.2,0.1,1.7C43.7,20.5,43.8,21.1,44,21.4z"/>
	<path class="st1" d="M51.9,22.5c0-0.5,0-1.1,0-1.6s0-1.2,0.1-1.8c0-0.6,0.1-1.2,0.1-1.9c0-0.6,0.1-1.2,0.2-1.9L51.1,15
		c-0.1-0.4-0.2-0.7-0.2-1s-0.1-0.6-0.1-1c0-0.1,0-0.1,0-0.2c0-0.1,0-0.1,0-0.2c0.1-0.2,0.3-0.3,0.4-0.4c0.2-0.2,0.4-0.3,0.6-0.4
		c0.3-0.2,0.5-0.3,0.8-0.4c0.3-0.1,0.6-0.2,0.9-0.2c0.4,0,0.8,0.1,1.2,0.2c0.3,0.1,0.5,0.3,0.7,0.5s0.4,0.5,0.4,0.9
		c0.1,0.4,0.1,0.8,0.1,1.2s0,0.7-0.1,1.1c0,0.4-0.1,0.9-0.2,1.3c-0.1,0.4-0.2,0.9-0.3,1.4c-0.1,0.4-0.2,0.9-0.3,1.3
		s-0.2,0.8-0.3,1.2c-0.1,0.4-0.2,0.6-0.3,0.8l0,0l1.4-0.6c0.3,0.3,0.4,0.5,0.5,0.8s0.2,0.6,0.3,1.1c-0.3,0.4-0.4,0.8-0.8,1.1
		c-0.1,0.2-0.3,0.3-0.4,0.4s-0.4,0.3-0.5,0.4c-0.2,0.1-0.4,0.2-0.6,0.3c-0.2,0.1-0.4,0.1-0.7,0.1s-0.5,0-0.8-0.1s-0.4-0.2-0.6-0.4
		c-0.2-0.2-0.4-0.4-0.4-0.8C51.9,23.4,51.9,22.9,51.9,22.5z M53.6,11c-0.4,0-0.6-0.1-0.9-0.2c-0.3-0.1-0.5-0.3-0.7-0.5
		s-0.4-0.4-0.4-0.6c-0.1-0.3-0.2-0.4-0.2-0.7s0-0.6,0.1-0.9c0.1-0.3,0.2-0.5,0.4-0.7C52,7.2,52.3,7,52.6,6.9s0.6-0.2,1.1-0.2
		c0.4,0,0.8,0.1,1.1,0.2C55,7,55.2,7.2,55.4,7.3s0.3,0.4,0.4,0.7c0.1,0.3,0.1,0.5,0.1,0.9c0,0.3-0.1,0.5-0.2,0.8
		c-0.1,0.3-0.3,0.4-0.5,0.6c-0.2,0.2-0.4,0.4-0.7,0.4C54.3,10.9,54,11,53.6,11z"/>
	<path class="st1" d="M62.4,25c-0.8,0-1.5-0.2-2-0.5c-0.6-0.4-1.1-0.8-1.5-1.4S58.2,21.8,58,21s-0.3-1.7-0.3-2.6s0.1-1.8,0.3-2.7
		c0.2-0.8,0.5-1.5,0.9-2.1c0.4-0.6,1-1.1,1.6-1.4c0.6-0.4,1.4-0.5,2.3-0.5c0.2,0,0.4,0,0.5,0c0.2,0,0.4,0,0.7,0
		c0.3,0,0.5,0.1,0.7,0.1s0.5,0.1,0.8,0.2c0.2,0.1,0.3,0.3,0.4,0.4c0.1,0.1,0.2,0.2,0.3,0.3s0.2,0.2,0.3,0.3c0.1,0.1,0.2,0.3,0.3,0.4
		c0,0.2,0,0.4,0,0.7s-0.1,0.6-0.1,0.9c0,0.4-0.1,0.6-0.2,1s-0.2,0.8-0.2,1.1c-0.1,0.3-0.1,0.5-0.2,0.7s-0.2,0.4-0.2,0.4
		c-0.1,0.1-0.3,0.1-0.4,0.2c-0.2,0-0.4,0.1-0.5,0.1c-0.2,0-0.4,0-0.6-0.1c-0.2,0-0.4-0.1-0.4-0.2l-0.3-2c-0.1-0.1-0.2-0.1-0.3-0.2
		c-0.1-0.1-0.3-0.1-0.4-0.2c-0.2,0-0.3-0.1-0.4-0.1c-0.2,0-0.3,0-0.4,0s-0.1,0-0.2,0h-0.1c-0.1,0.2-0.2,0.4-0.2,0.6
		c-0.1,0.3-0.1,0.4-0.2,0.7c0,0.3-0.1,0.5-0.1,0.8s0,0.5,0,0.8s0,0.6,0.1,1c0,0.4,0.1,0.6,0.2,1c0.1,0.3,0.3,0.5,0.5,0.7
		c0.3,0.2,0.5,0.3,0.9,0.3c0.3,0,0.4,0,0.7-0.1c0.3-0.1,0.4-0.2,0.7-0.3c0.3-0.1,0.4-0.2,0.7-0.4c0.3-0.1,0.4-0.3,0.7-0.4
		c0.1,0.2,0.2,0.3,0.3,0.4c0.1,0.2,0.2,0.3,0.3,0.4s0.2,0.4,0.2,0.6c0.1,0.2,0.1,0.4,0.1,0.7c-0.1,0.1-0.2,0.3-0.3,0.4
		c-0.1,0.2-0.3,0.4-0.4,0.5c-0.2,0.2-0.4,0.4-0.6,0.5c-0.3,0.2-0.5,0.4-0.8,0.5s-0.6,0.3-1,0.4C63.1,25,62.8,25,62.4,25z"/>
	<path class="st1" d="M72.6,25c-0.8,0-1.5-0.2-2-0.5c-0.6-0.4-1.1-0.8-1.5-1.4s-0.7-1.3-0.9-2.1s-0.3-1.7-0.3-2.6s0.1-1.8,0.3-2.7
		c0.2-0.8,0.5-1.5,0.9-2.1c0.4-0.6,1-1.1,1.6-1.4c0.6-0.4,1.4-0.5,2.3-0.5c0.3,0,0.5,0,0.8,0.1c0.3,0,0.6,0.1,0.9,0.2
		c0.3,0.1,0.5,0.2,0.9,0.4c0.3,0.2,0.5,0.4,0.7,0.5c0.2,0.2,0.4,0.4,0.5,0.7c0.2,0.3,0.3,0.5,0.4,0.8s0.2,0.6,0.2,1s0.1,0.6,0.1,1
		c0,0.3,0,0.5,0,0.7c0,0.3,0,0.5-0.1,0.7c-0.1,0.1-0.2,0.3-0.3,0.4c-0.2,0.2-0.3,0.4-0.5,0.5c-0.2,0.2-0.4,0.4-0.6,0.5
		c-0.2,0.2-0.4,0.3-0.7,0.4c-0.3,0-0.5,0-0.8,0c-0.5,0-1.1,0-1.6-0.1s-0.9-0.1-1.2-0.2c0,0.3,0.1,0.5,0.1,0.8
		c0.1,0.3,0.2,0.5,0.3,0.8c0.2,0.3,0.3,0.4,0.5,0.5c0.2,0.2,0.5,0.3,0.8,0.3h0.1c0,0,0.1,0,0.2,0c0.2,0,0.4-0.1,0.7-0.2
		c0.3-0.1,0.5-0.2,0.7-0.3c0.3-0.1,0.5-0.2,0.7-0.3c0.3-0.1,0.4-0.2,0.7-0.4c0.1,0.1,0.2,0.3,0.3,0.4c0.1,0.1,0.2,0.3,0.2,0.4
		c0.1,0.2,0.1,0.4,0.2,0.5c0,0.2,0.1,0.4,0.1,0.7c-0.1,0.1-0.2,0.3-0.4,0.4c-0.2,0.2-0.4,0.4-0.5,0.5s-0.4,0.4-0.7,0.5
		c-0.3,0.2-0.5,0.4-0.9,0.5c-0.3,0.2-0.6,0.3-1,0.4C73.3,25,72.9,25,72.6,25z M73.9,17l-0.1-1.2c-0.1-0.1-0.1-0.1-0.2-0.2
		s-0.2-0.1-0.3-0.1c-0.1,0-0.2-0.1-0.4-0.1c-0.1,0-0.3,0-0.4,0c-0.2,0-0.4,0-0.5,0.1c-0.2,0-0.3,0.1-0.3,0.1
		c-0.1,0.3-0.2,0.5-0.3,0.8c-0.1,0.3-0.1,0.6-0.2,1L73.9,17z"/>
	<path class="st1" d="M78.5,23.2c0-0.2,0-0.4,0-0.6s0.1-0.4,0.1-0.5c0.1-0.2,0.1-0.4,0.2-0.5s0.2-0.4,0.4-0.6
		c0.3,0.2,0.5,0.3,0.9,0.4c0.3,0.2,0.6,0.3,0.9,0.4s0.6,0.2,0.9,0.3s0.6,0.1,1,0.1c0.2,0,0.3,0,0.4-0.1c0,0,0-0.1,0.1-0.2
		c0-0.1,0-0.1,0-0.2s0-0.1,0-0.2s-0.1-0.1-0.2-0.2c-0.4-0.3-0.7-0.4-1.1-0.6s-0.7-0.4-1.1-0.6s-0.7-0.4-1-0.7
		c-0.3-0.3-0.6-0.5-0.8-0.9c-0.3-0.4-0.4-0.7-0.5-1.2c-0.2-0.4-0.2-1-0.2-1.5c0-0.6,0.1-1.2,0.2-1.6c0.2-0.5,0.4-1,0.7-1.3
		s0.7-0.7,1.2-0.9s1.1-0.4,1.9-0.4c0.2,0,0.4,0,0.6,0c0.3,0,0.6,0,1,0.1s0.7,0.1,1.1,0.3c0.4,0.1,0.7,0.3,1.1,0.4
		c0,0.1,0,0.3,0.1,0.4c0,0.2,0,0.3,0,0.4c0,0.3,0,0.6-0.1,1c0,0.4-0.1,0.6-0.2,1c-0.1,0.3-0.2,0.6-0.3,0.9c-0.1,0.3-0.3,0.4-0.4,0.6
		c-0.3-0.1-0.6-0.3-0.9-0.4c-0.3-0.2-0.6-0.3-0.9-0.4c-0.3-0.2-0.6-0.3-0.9-0.4c-0.3-0.1-0.5-0.2-0.7-0.3c-0.1,0-0.3,0.1-0.3,0.3
		c-0.1,0.2-0.1,0.3-0.1,0.4c0,0.2,0,0.3,0.1,0.4s0.1,0.2,0.2,0.3c0.1,0.1,0.2,0.2,0.3,0.2c0.1,0.1,0.2,0.1,0.3,0.2
		c0.4,0.2,0.8,0.4,1.2,0.6s0.9,0.4,1.2,0.8c0.4,0.4,0.8,0.8,1.1,1.3c0.3,0.5,0.4,1.1,0.4,1.7c0,0.4-0.1,0.9-0.2,1.2
		c-0.1,0.4-0.3,0.7-0.4,1c-0.2,0.3-0.4,0.5-0.7,0.8c-0.3,0.2-0.5,0.4-0.8,0.5c-0.4,0.2-0.7,0.3-1.1,0.4s-0.8,0.1-1.3,0.1
		c-0.3,0-0.5,0-0.8-0.1s-0.6-0.2-0.9-0.3c-0.4-0.2-0.6-0.4-0.9-0.5C79,23.9,78.7,23.6,78.5,23.2z"/>
</g>
<g>
	<path class="st3" d="M60.8,11c-0.7,0-1.4-0.1-1.9-0.4c-0.5-0.3-1-0.5-1.3-1c-0.3-0.4-0.5-1-0.6-1.6c-0.2-0.6-0.2-1.3-0.2-2
		c0-0.4,0-0.9,0.1-1.3c0.1-0.4,0.2-0.8,0.4-1.2c0.2-0.4,0.4-0.7,0.5-1C58,2.2,58.3,2,58.7,1.7c0.3-0.2,0.6-0.4,1.2-0.5
		C60.3,1.1,60.7,1,61.2,1c0.3,0,0.6,0,1,0.1c0.4,0,0.7,0.1,1.2,0.2c0.2,0.1,0.4,0.3,0.5,0.4c0.2,0.2,0.4,0.4,0.5,0.5
		c0,0.2,0,0.4,0,0.5c0,0.2-0.1,0.4-0.1,0.6c0,0.3-0.1,0.4-0.1,0.7c-0.1,0.3-0.1,0.4-0.2,0.6c-0.1,0.2-0.1,0.4-0.2,0.5
		c-0.1,0.2-0.1,0.3-0.2,0.4c-0.1,0-0.1,0.1-0.1,0.1h-0.1c0,0-0.1,0-0.2,0s-0.1,0-0.2,0c-0.2,0-0.4,0-0.5,0S62.1,5.5,62,5.5l-0.2-2.1
		c-0.2-0.1-0.4-0.1-0.6-0.1s-0.4,0-0.6,0c-0.1,0-0.1,0-0.2,0s-0.1,0-0.2,0c-0.1,0.3-0.2,0.6-0.2,1.1c-0.1,0.4-0.1,0.8-0.1,1.2
		c0,0.1,0,0.2,0,0.3s0,0.2,0,0.3c0,0.3,0,0.4,0,0.7c0,0.3,0,0.4,0.1,0.6C59.8,7.7,60,7.9,60,8c0,0.2,0.1,0.3,0.2,0.4
		c0.1,0.1,0.2,0.2,0.4,0.3c0.2,0.1,0.4,0.1,0.6,0.1c0.2,0,0.4,0,0.6-0.1c0.2,0,0.4-0.1,0.6-0.2c0.2-0.1,0.4-0.2,0.5-0.3
		c0.2-0.1,0.4-0.2,0.5-0.3c0.1,0.1,0.2,0.2,0.3,0.3c0.1,0.1,0.2,0.2,0.3,0.3c0.1,0.1,0.1,0.3,0.2,0.4s0.1,0.3,0.1,0.4
		s-0.1,0.1-0.2,0.2s-0.2,0.2-0.4,0.3c-0.2,0.1-0.3,0.2-0.4,0.4c0,0-0.2,0-0.4,0.1c-0.3,0.1-0.5,0.2-0.9,0.3C61.4,11,61.2,11,60.8,11
		z"/>
	<path class="st3" d="M65.5,9.4c0-0.2,0-0.4,0-0.7s0-0.6,0-0.9c0-0.3,0-0.7,0-1.2c0-0.4,0-0.8,0-1.2c0-0.4,0-0.9,0-1.3
		c0-0.4,0.1-0.9,0.1-1.4l-0.9-0.1c0-0.1-0.1-0.3-0.1-0.4s0-0.2-0.1-0.3c0-0.1,0-0.2,0-0.3s0-0.2,0-0.4c0.1-0.1,0.2-0.2,0.3-0.3
		c0.1-0.1,0.3-0.2,0.4-0.3s0.4-0.2,0.5-0.2c0.2-0.1,0.4-0.1,0.6-0.1c0.5,0,1.1,0.2,1.3,0.4C68,1,68.1,1.4,68.1,1.9
		c0,0.2,0,0.4,0,0.7s0,0.6-0.1,1.1c0,0.4-0.1,0.8-0.1,1.2s-0.1,0.9-0.2,1.3s-0.1,0.9-0.2,1.3s-0.2,0.8-0.2,1.2l0,0l1-0.4
		c0.2,0.2,0.3,0.4,0.4,0.5s0.2,0.4,0.2,0.6c-0.2,0.3-0.4,0.4-0.5,0.6c-0.1,0.1-0.2,0.2-0.3,0.3c-0.1,0.1-0.3,0.2-0.4,0.2
		c-0.1,0.1-0.3,0.1-0.4,0.2c-0.2,0-0.3,0.1-0.4,0.1s-0.4,0-0.5-0.1c-0.2-0.1-0.4-0.1-0.4-0.3c-0.1-0.1-0.3-0.3-0.3-0.4
		C65.5,10,65.5,9.8,65.5,9.4z"/>
	<path class="st3" d="M73.1,11c-0.6,0-1.3-0.1-1.6-0.3c-0.4-0.2-0.7-0.4-1.1-0.8c-0.3-0.4-0.4-0.7-0.5-1.2c-0.1-0.4-0.2-1-0.2-1.5
		s0.1-1.1,0.2-1.6s0.4-0.9,0.6-1.2c0.3-0.4,0.6-0.6,1.2-0.8c0.4-0.2,1.1-0.3,1.6-0.3c0.6,0,1.3,0.1,1.7,0.3c0.4,0.2,0.9,0.4,1.1,0.8
		c0.3,0.4,0.4,0.7,0.5,1.2c0.1,0.4,0.2,1,0.2,1.5s-0.1,1.1-0.2,1.5C76.4,9,76.2,9.5,76,9.8c-0.3,0.4-0.6,0.6-1.2,0.8
		C74.3,10.9,73.8,11,73.1,11z M72.6,9L72.6,9c0.2,0.1,0.2,0.1,0.3,0.2c0.1,0,0.2,0,0.3,0c0.1,0,0.2,0,0.3,0c0.1,0,0.2,0,0.3,0
		c0.1,0,0.1,0,0.2,0c0.1-0.2,0.2-0.4,0.3-0.7c0.1-0.4,0.1-0.6,0.1-1s0-0.6-0.1-0.9c0-0.3-0.1-0.5-0.2-0.7c-0.1-0.1-0.1-0.1-0.3-0.1
		c-0.2,0-0.3,0-0.4,0s-0.2,0-0.3,0c-0.1,0-0.2,0-0.2,0.1c-0.1,0.2-0.2,0.4-0.3,0.7c-0.1,0.3-0.1,0.5-0.1,0.8c0,0.4,0,0.6,0.1,1
		C72.4,8.5,72.5,8.7,72.6,9z"/>
	<path class="st3" d="M78.2,9.4c0-0.3,0-0.5,0-0.9s0-0.8,0-1.2c0-0.3,0-0.6,0-0.9c0-0.4,0-0.6,0-1l-0.7-0.1c0-0.1-0.1-0.2-0.1-0.3
		s0-0.2,0-0.3s0-0.2,0-0.3c0-0.1,0-0.2,0-0.3v0.1c0-0.1,0-0.1,0-0.2l1-0.2c0-0.1,0-0.3,0.1-0.4c0-0.2,0.1-0.3,0.1-0.4
		c0-0.2,0.1-0.3,0.1-0.4c0-0.1,0.1-0.3,0.1-0.4C79,2.1,79.1,2,79.3,1.9s0.4-0.1,0.6-0.1s0.4,0,0.5,0.1C80.7,2,80.9,2,80.9,2.1
		c0,0.2,0,0.4,0,0.5c0,0.2,0,0.4,0,0.5c0,0.2,0,0.4,0,0.5l1.2-0.3c0.1,0.2,0.2,0.3,0.2,0.4c0,0.2,0.1,0.3,0.1,0.4s0,0.3,0,0.4
		s-0.1,0.3-0.1,0.4s-0.1,0.2-0.1,0.3s-0.1,0.2-0.1,0.2c-0.1,0-0.3,0-0.4,0.1c-0.2,0-0.4,0-0.7,0c0,0.3-0.1,0.6-0.1,0.9
		c0,0.4-0.1,0.6-0.1,1c0,0.3-0.1,0.5-0.1,0.8c0,0.3-0.1,0.4-0.1,0.6l0,0l1.6-0.4c0.2,0.2,0.3,0.4,0.4,0.5s0.2,0.4,0.2,0.6
		c-0.3,0.3-0.4,0.5-0.9,0.7c-0.1,0.1-0.3,0.2-0.4,0.3c-0.1,0.1-0.3,0.2-0.4,0.3s-0.4,0.1-0.5,0.2c-0.2,0.1-0.4,0.1-0.6,0.1
		c-0.2,0-0.4,0-0.4-0.1c-0.2-0.1-0.3-0.1-0.4-0.3c-0.1-0.1-0.3-0.3-0.3-0.4C78.2,10,78.2,9.8,78.2,9.4z"/>
	<path class="st3" d="M83.6,10.7c0-0.2,0-0.4-0.1-0.5c0-0.2,0-0.4,0-0.6c0-0.3,0-0.5,0-0.9c0-0.2,0-0.4,0-0.8c0-0.4,0-0.7,0-1.2
		c0-0.4,0-0.7,0-1.1s0-0.7,0-1.1s0-0.7,0-1c0-0.4,0-0.6,0.1-0.8l-0.7-0.1c-0.1-0.2-0.1-0.4-0.1-0.6s0-0.4,0-0.6
		c0-0.1,0.1-0.1,0.2-0.2C83,1.1,83.2,1,83.3,0.9c0.2-0.1,0.4-0.2,0.5-0.2c0.2-0.1,0.4-0.1,0.5-0.1c0.5,0,1,0.1,1.3,0.4
		c0.3,0.3,0.4,0.7,0.4,1.2c0,0.1,0,0.3,0,0.4s0,0.4,0,0.6c0,0.3,0,0.5-0.1,0.8c0,0.3-0.1,0.6-0.1,0.9s-0.1,0.6-0.1,0.9
		c-0.1,0.3-0.1,0.5-0.2,0.8v0.1h0.1h0.1C85.9,6.4,85.9,6.3,86,6c0-0.4,0.1-0.6,0.2-0.9s0.2-0.5,0.4-0.7C86.7,4.1,87,4,87.1,3.8
		s0.4-0.4,0.6-0.4c0.3-0.1,0.4-0.2,0.9-0.2c0.4,0,0.7,0.1,1,0.2c0.3,0.2,0.4,0.4,0.5,0.5s0.3,0.4,0.3,0.7c0.1,0.3,0.1,0.5,0.1,0.8
		c0,0.4,0,0.7-0.1,1.1s-0.1,0.7-0.2,1s-0.2,0.6-0.3,0.8c-0.1,0.3-0.2,0.4-0.2,0.6l0,0l1.1-0.4C90.9,8.7,91,8.9,91.1,9
		s0.2,0.4,0.2,0.6c-0.2,0.3-0.4,0.4-0.5,0.6c-0.1,0.1-0.2,0.2-0.3,0.3s-0.3,0.2-0.4,0.2c-0.1,0.1-0.3,0.1-0.4,0.2
		c-0.2,0-0.3,0.1-0.4,0.1s-0.4,0-0.5-0.1c-0.2,0-0.3-0.1-0.4-0.3c-0.2-0.2-0.2-0.4-0.3-0.5s-0.1-0.4-0.1-0.7c0-0.2,0-0.4,0-0.8
		c0-0.3,0-0.6,0-0.9c0-0.4,0-0.6,0.1-0.9c0-0.3,0-0.5,0.1-0.7C87.9,6,87.8,6,87.8,5.9c-0.1,0-0.2,0-0.2,0c-0.1,0.1-0.1,0.2-0.2,0.3
		s-0.2,0.3-0.3,0.4C87,6.8,86.9,7,86.7,7c-0.1,0.1-0.3,0.4-0.4,0.5c-0.1,0.2-0.2,0.3-0.2,0.4C86,8,86,8.2,86,8.2v0.1v0.1
		c0,0.1,0,0.3,0,0.4c0,0.2,0,0.3,0.1,0.4c0,0.2,0.1,0.4,0.1,0.5s0.1,0.4,0.1,0.4c-0.1,0.2-0.2,0.3-0.4,0.4s-0.5,0.2-1,0.2
		c-0.3,0-0.4,0-0.6-0.1c-0.2,0-0.3-0.1-0.4-0.1C83.7,10.8,83.7,10.7,83.6,10.7z"/>
	<path class="st3" d="M92.3,9.5c0-0.3,0-0.6,0-0.9c0-0.4,0-0.6,0-1s0-0.7,0.1-1.1c0-0.4,0.1-0.7,0.1-1.1l-0.9-0.1
		c0-0.3-0.1-0.4-0.1-0.6s0-0.4,0-0.5v0V4.1c0.1-0.1,0.2-0.2,0.3-0.3c0.1-0.1,0.3-0.2,0.4-0.3c0.2-0.1,0.4-0.2,0.5-0.2
		c0.2-0.1,0.4-0.1,0.6-0.1c0.3,0,0.5,0,0.9,0.1c0.2,0.1,0.4,0.2,0.5,0.3c0.1,0.2,0.2,0.3,0.3,0.5c0.1,0.2,0.1,0.4,0.1,0.7
		c0,0.2,0,0.4,0,0.6s-0.1,0.5-0.1,0.7C95,6.4,95,6.6,94.9,6.9s-0.1,0.5-0.2,0.7c-0.1,0.3-0.1,0.4-0.2,0.6s-0.1,0.4-0.2,0.4l0,0
		l1.1-0.4c0.2,0.2,0.3,0.3,0.4,0.4C95.9,8.8,96,9,96,9.2c-0.2,0.3-0.4,0.4-0.5,0.6c-0.1,0.1-0.2,0.2-0.3,0.3
		c-0.1,0.1-0.3,0.2-0.4,0.2c-0.1,0.1-0.3,0.1-0.4,0.2c-0.2,0-0.3,0.1-0.4,0.1c-0.1,0-0.4,0-0.5-0.1c-0.2,0-0.3-0.1-0.4-0.3
		c-0.1-0.1-0.3-0.3-0.3-0.4C92.3,10.1,92.3,9.8,92.3,9.5z M93.6,3c-0.2,0-0.4,0-0.6-0.1c-0.2-0.1-0.4-0.2-0.4-0.3
		c-0.2-0.1-0.3-0.3-0.4-0.4C92,2,92,1.9,92,1.8c0-0.2,0-0.4,0.1-0.4c0.1-0.2,0.2-0.3,0.3-0.4c0.1-0.1,0.3-0.2,0.4-0.3
		s0.4-0.1,0.7-0.1c0.3,0,0.5,0,0.7,0.1s0.4,0.2,0.4,0.3s0.2,0.3,0.3,0.4c0.1,0.2,0.1,0.4,0.1,0.4c0,0.2,0,0.4-0.1,0.4
		c-0.1,0.2-0.2,0.3-0.4,0.4c-0.2,0.1-0.3,0.2-0.4,0.3C94,3,93.8,3,93.6,3z"/>
	<path class="st3" d="M97.2,10.7c0-0.2,0-0.4-0.1-0.5c0-0.2,0-0.4,0-0.6c0-0.3,0-0.5,0-0.9s0-0.6,0-0.8c0-0.3,0-0.4,0-0.7
		c0-0.2,0-0.4,0.1-0.7c0-0.3,0.1-0.5,0.1-0.9l-0.7-0.1c-0.1-0.2-0.1-0.3-0.1-0.4s-0.1-0.3-0.1-0.4s0-0.3,0-0.4s0-0.3,0-0.4
		c0,0,0.1-0.1,0.2-0.2c0.1-0.1,0.2-0.1,0.4-0.2c0.2-0.1,0.3-0.1,0.4-0.2c0.2,0,0.4-0.1,0.5-0.1c0.3,0,0.4,0,0.6,0.1S99,3.5,99,3.6
		c0.1,0.1,0.2,0.3,0.3,0.4c0.1,0.2,0.1,0.4,0.1,0.5c0,0.2,0,0.3,0,0.4s-0.1,0.4-0.1,0.5c0,0.3-0.1,0.4-0.1,0.5s0,0.3-0.1,0.4
		c0,0.1,0,0.2,0,0.2s0,0,0,0.1h0.1h0.1c0.1-0.3,0.1-0.4,0.2-0.7c0.1-0.3,0.2-0.5,0.3-0.8s0.2-0.5,0.4-0.7c0.1-0.3,0.3-0.4,0.4-0.6
		s0.4-0.4,0.6-0.4c0.3-0.1,0.4-0.2,0.9-0.2c0.4,0,0.7,0.1,1,0.2c0.3,0.1,0.4,0.3,0.6,0.5c0.2,0.2,0.3,0.4,0.3,0.7
		c0.1,0.3,0.1,0.5,0.1,0.8c0,0.4,0,0.7-0.1,1.1s-0.1,0.7-0.2,1c-0.1,0.3-0.2,0.6-0.3,0.8c-0.1,0.3-0.2,0.4-0.2,0.6l0,0l1-0.4
		c0.2,0.2,0.3,0.4,0.4,0.5c0.1,0.2,0.2,0.4,0.2,0.6c-0.2,0.3-0.4,0.4-0.5,0.6c-0.1,0.1-0.2,0.2-0.3,0.3c-0.1,0.1-0.3,0.2-0.4,0.2
		c-0.1,0.1-0.3,0.1-0.4,0.2c-0.2,0-0.3,0.1-0.4,0.1s-0.4,0-0.5-0.1c-0.2,0-0.3-0.1-0.4-0.3c-0.1-0.1-0.3-0.3-0.3-0.4
		c-0.1-0.2-0.1-0.4-0.1-0.7c0-0.2,0-0.4,0-0.8c0-0.3,0-0.6,0-0.9c0-0.4,0-0.6,0.1-0.9c0-0.3,0-0.5,0.1-0.7c-0.1-0.1-0.2-0.1-0.2-0.2
		c-0.1,0-0.2,0-0.2,0c-0.1,0.1-0.1,0.2-0.2,0.3c-0.1,0.1-0.2,0.3-0.3,0.4c-0.1,0.2-0.2,0.4-0.3,0.4c-0.1,0.2-0.2,0.4-0.3,0.4
		c-0.1,0.2-0.2,0.3-0.2,0.4c-0.1,0.1-0.1,0.3-0.1,0.3v0.1v0.1c0,0.1,0,0.3,0,0.4c0,0.2,0,0.3,0.1,0.4c0,0.2,0.1,0.4,0.1,0.5
		s0.1,0.4,0.1,0.4c-0.1,0.2-0.2,0.3-0.4,0.4s-0.5,0.2-1,0.2c-0.3,0-0.4,0-0.6-0.1c-0.2,0-0.3-0.1-0.4-0.1
		C97.4,10.8,97.3,10.7,97.2,10.7z"/>
	<path class="st3" d="M106.3,11c0.3,0.2,0.5,0.4,0.9,0.4c0.3,0,0.5,0.2,0.9,0.3c0.3,0.1,0.4,0.1,0.7,0.2c0.3,0.1,0.4,0,0.5,0
		s0.3,0,0.4,0c0.1,0,0.3,0,0.3-0.1c0.1-0.1,0.1-0.2,0.2-0.3c0-0.1,0-0.2,0-0.3c0-0.1,0-0.2,0-0.2s0-0.1-0.1-0.1
		c-0.2,0-0.4-0.1-0.7-0.1c-0.3,0-0.5,0-0.9,0c-0.3,0-0.5,0-0.9-0.1c-0.3,0-0.5-0.1-0.7-0.3c-0.2-0.1-0.4-0.3-0.5-0.4
		c-0.1-0.2-0.2-0.4-0.2-0.7c0-0.1,0-0.3,0.1-0.4c0-0.1,0.1-0.2,0.2-0.4c0.1-0.1,0.2-0.2,0.3-0.3c0.1-0.1,0.2-0.2,0.3-0.3
		c-0.2-0.1-0.4-0.2-0.6-0.4S106.1,7.2,106,7c-0.2-0.2-0.3-0.4-0.4-0.7c-0.1-0.3-0.1-0.5-0.1-0.9s0.1-0.6,0.2-0.9
		c0.1-0.3,0.2-0.4,0.4-0.7c0.2-0.2,0.4-0.4,0.5-0.4s0.4-0.3,0.6-0.3c0.3-0.1,0.4-0.1,0.7-0.2c0.3,0,0.4-0.1,0.7-0.1
		c0.3,0,0.6,0,1,0.1c0.3,0.1,0.5,0.2,0.9,0.3l-0.3-1.6c0.1-0.1,0.3-0.2,0.4-0.2s0.4-0.1,0.5-0.1c0.1,0,0.3,0,0.4,0
		c0.1,0,0.3,0.1,0.4,0.1c0.1,0.1,0.3,0.1,0.4,0.2c0.1,0.1,0.2,0.2,0.3,0.3c0,0,0,0.1,0,0.2s0,0.3,0,0.4c0,0.2-0.1,0.4-0.1,0.6
		c-0.1,0.2-0.2,0.4-0.3,0.6s-0.3,0.4-0.4,0.5c0.1,0.2,0.1,0.3,0.2,0.4c0,0.2,0.1,0.4,0.1,0.5c0,0.3,0,0.4-0.1,0.7
		c0,0.3-0.1,0.4-0.2,0.7c-0.1,0.2-0.3,0.4-0.4,0.6c-0.2,0.2-0.4,0.4-0.5,0.4c-0.3,0.2-0.4,0.3-0.9,0.4C109.8,8,109.5,8,109,8
		c-0.2,0-0.4,0-0.6,0c0,0.1,0,0.3,0,0.4s0.1,0.2,0.1,0.4c0.2,0,0.4-0.1,0.7-0.1c0.3,0,0.4-0.1,0.7-0.1c0.1,0,0.2,0,0.2,0h0.2
		c0.3,0,0.5,0,0.7,0c0.3,0,0.4,0,0.6,0.1c0.2,0,0.4,0.1,0.4,0.2c0.1,0.1,0.3,0.2,0.3,0.4c0.1,0.2,0.2,0.3,0.2,0.4s0.1,0.4,0.1,0.5
		c0,0.4-0.1,0.6-0.2,0.9c-0.1,0.3-0.3,0.5-0.4,0.7c-0.2,0.2-0.4,0.4-0.7,0.5c-0.3,0.2-0.5,0.3-0.9,0.4s-0.6,0.2-1,0.3
		c-0.4,0.1-0.6,0.1-1.1,0.1c-0.3,0-0.5,0-0.9-0.1c-0.3,0-0.5-0.1-0.9-0.2c-0.3-0.1-0.4-0.3-0.6-0.4s-0.4-0.4-0.4-0.8
		C105.6,11.7,105.9,11.3,106.3,11z M107.8,6.9c0.1,0,0.1,0.1,0.2,0.1c0.1,0,0.2,0,0.3,0.1c0.1,0,0.2,0,0.3,0s0.2,0,0.3,0
		c0.2,0,0.3,0,0.4,0c0.1,0,0.2,0,0.2,0c0.1-0.1,0.1-0.3,0.1-0.4s0-0.3,0-0.4c0-0.2,0-0.3-0.1-0.4c0-0.1-0.1-0.2-0.1-0.3
		c0,0-0.1-0.1-0.2-0.1c-0.1,0-0.2,0-0.3,0s-0.2,0-0.3,0s-0.2,0-0.3,0s-0.3,0-0.4,0c-0.1,0-0.2,0-0.2,0c-0.1,0.1-0.1,0.3-0.2,0.4
		c-0.1,0.1,0,0.3,0,0.4s0,0.3,0.1,0.4C107.7,6.7,107.7,6.8,107.8,6.9z"/>
</g>
<g>
	<path class="st3" d="M88.2,23.5c0-0.1,0-0.1,0-0.2s0-0.1,0-0.2c0-0.2,0-0.3,0.1-0.6c0.1-0.3,0.2-0.3,0.3-0.6
		c0.2,0.1,0.3,0.3,0.5,0.3c0.2,0.1,0.3,0.2,0.6,0.3c0.3,0.1,0.3,0.2,0.6,0.2s0.3,0.1,0.6,0.1c0.1,0,0.2,0,0.3,0c0.1,0,0.2,0,0.2-0.1
		s0-0.1,0-0.2s0-0.1,0-0.2c0-0.2,0-0.3-0.1-0.3s-0.2-0.3-0.3-0.3s-0.3-0.2-0.3-0.3c-0.2-0.1-0.3-0.2-0.3-0.2
		c-0.3-0.2-0.5-0.3-0.9-0.5c-0.3-0.2-0.5-0.3-0.7-0.6c-0.3-0.3-0.3-0.5-0.5-0.9C88.1,19,88,18.7,88,18.2c0-0.3,0.1-0.8,0.2-1
		c0.1-0.3,0.3-0.6,0.3-0.9c0.3-0.3,0.4-0.4,0.8-0.6c0.3-0.2,0.7-0.3,1.1-0.3c0.1,0,0.2,0,0.3,0s0.3,0,0.4,0s0.3,0,0.5,0
		c0.2,0,0.3,0.1,0.5,0.1c0.2,0.2,0.3,0.3,0.4,0.3c0.2,0.2,0.3,0.3,0.3,0.5c0,0.3,0,0.4-0.1,0.7c0,0.3-0.1,0.4-0.1,0.7
		c-0.1,0.3-0.1,0.3-0.2,0.6c-0.1,0.2-0.2,0.3-0.3,0.3c-0.1,0-0.2,0.1-0.3,0.1c-0.1,0-0.3,0-0.3,0c-0.2,0-0.3,0-0.3,0
		c-0.1,0-0.2-0.1-0.3-0.2l-0.3-1.1c-0.1,0-0.3-0.1-0.3-0.1c-0.1,0-0.3-0.1-0.3-0.1c-0.1,0-0.2,0-0.3,0c-0.1,0-0.2,0-0.2,0
		c-0.2,0.1-0.3,0.2-0.3,0.3c-0.1,0.2-0.1,0.3-0.1,0.3c0,0.2,0,0.3,0.1,0.4c0.1,0.2,0.2,0.3,0.3,0.3c0.1,0.1,0.3,0.2,0.3,0.3
		c0.2,0.1,0.3,0.2,0.3,0.3c0.3,0.2,0.5,0.3,0.8,0.5c0.3,0.2,0.4,0.3,0.7,0.6c0.2,0.3,0.3,0.4,0.4,0.8c0.1,0.3,0.2,0.6,0.2,1
		c0,0.3,0,0.5-0.1,0.8s-0.2,0.4-0.3,0.6c-0.2,0.3-0.3,0.3-0.3,0.5c-0.1,0.2-0.3,0.3-0.5,0.3c-0.3,0.1-0.4,0.2-0.7,0.3
		c-0.3,0.1-0.5,0.1-0.9,0.1c-0.2,0-0.3,0-0.4-0.1c-0.2,0-0.3-0.1-0.5-0.2c-0.2-0.1-0.3-0.3-0.5-0.3C88.1,24.1,88.3,23.7,88.2,23.5z"
		/>
	<path class="st3" d="M94.1,23.2c0-0.3,0-0.4,0-0.9c0-0.3,0-0.7,0-1.1c0-0.3,0-0.5,0-0.9s0-0.6,0-0.9l-0.5-0.1c0-0.1,0-0.2-0.1-0.3
		c0-0.1,0-0.2,0-0.3c0-0.1,0-0.2,0-0.3s0-0.2,0-0.3c0,0,0-0.1,0-0.2s0-0.1,0-0.2l0.7-0.2c0-0.1,0-0.3,0.1-0.3c0-0.2,0.1-0.3,0.1-0.3
		c0-0.2,0.1-0.3,0.1-0.3c0-0.2,0.1-0.3,0.1-0.3c0.1-0.1,0.3-0.2,0.3-0.3C95,16,95.2,16,95.3,16s0.3,0,0.4,0.1c0.2,0,0.3,0.1,0.3,0.2
		c0,0.2,0,0.3,0,0.4c0,0.2,0,0.3,0,0.4c0,0.2,0,0.3,0,0.4l0.9-0.2c0.1,0.2,0.1,0.3,0.2,0.3c0,0.2,0.1,0.3,0.1,0.3c0,0.2,0,0.3,0,0.3
		c0,0.1,0,0.3-0.1,0.3c0,0.1-0.1,0.2-0.1,0.3s-0.1,0.2-0.1,0.3c-0.1,0-0.2,0-0.3,0.1c-0.2,0-0.3,0-0.5,0c0,0.3-0.1,0.5-0.1,0.9
		s-0.1,0.6-0.1,0.9c0,0.3-0.1,0.5-0.1,0.8s-0.1,0.3-0.1,0.5l0,0l1.1-0.4c0.2,0.2,0.3,0.3,0.3,0.4c0.1,0.3,0.1,0.3,0.2,0.6
		c-0.2,0.3-0.3,0.4-0.6,0.7c-0.1,0.1-0.3,0.2-0.3,0.3c-0.1,0.1-0.3,0.2-0.3,0.3c-0.2,0.1-0.3,0.1-0.3,0.2c-0.2,0-0.3,0.1-0.4,0.1
		c-0.1,0-0.3,0-0.3-0.1c-0.1-0.1-0.3-0.2-0.3-0.3c-0.1-0.1-0.2-0.3-0.3-0.4C94.1,23.7,94.1,23.4,94.1,23.2z"/>
	<path class="st3" d="M100.1,24.5c-0.4,0-0.9-0.1-1.2-0.3c-0.3-0.2-0.6-0.4-0.8-0.8c-0.3-0.3-0.3-0.7-0.4-1.1s-0.2-0.9-0.2-1.4
		c0-0.5,0.1-1,0.2-1.5c0.1-0.4,0.3-0.9,0.4-1.1c0.3-0.3,0.4-0.5,0.9-0.7c0.3-0.2,0.8-0.3,1.2-0.3c0.5,0,1,0.1,1.2,0.3
		c0.3,0.2,0.6,0.3,0.8,0.8c0.2,0.3,0.3,0.7,0.3,1.1c0.1,0.4,0.1,0.9,0.1,1.5c0,0.4-0.1,0.9-0.2,1.4c-0.1,0.4-0.3,0.8-0.4,1.1
		c-0.3,0.3-0.4,0.5-0.9,0.8C101,24.5,100.6,24.5,100.1,24.5z M99.7,22.8L99.7,22.8c0.2,0.1,0.2,0.1,0.3,0.2c0.1,0,0.2,0,0.2,0
		c0.1,0,0.2,0,0.2,0c0.1,0,0.2,0,0.3,0c0.1,0,0.1,0,0.1,0c0.1-0.2,0.2-0.3,0.2-0.7s0.1-0.6,0.1-0.9s0-0.6-0.1-0.9
		c0-0.3-0.1-0.4-0.2-0.6c0-0.1-0.1-0.1-0.3-0.1c-0.1,0-0.3,0-0.3,0c-0.1,0-0.2,0-0.3,0c-0.1,0-0.2,0-0.2,0.1
		c-0.1,0.2-0.2,0.3-0.2,0.6c0,0.3-0.1,0.4-0.1,0.8s0,0.6,0.1,0.9C99.6,22.3,99.7,22.5,99.7,22.8z"/>
	<path class="st3" d="M104,23.3c0-0.1,0-0.1,0-0.2s0-0.2,0-0.2c0-0.2,0-0.3,0-0.6c0-0.3,0-0.5,0-0.9s0-0.6,0-0.9s0-0.6,0-0.9
		l-0.4-0.1c-0.1-0.3-0.1-0.4-0.2-0.6c-0.1-0.2,0-0.3,0-0.6v-0.1v-0.1c0,0,0.1-0.1,0.2-0.2c0.1-0.1,0.2-0.2,0.3-0.2
		c0.1-0.1,0.3-0.1,0.3-0.2c0.1-0.1,0.3-0.1,0.3-0.1c0.3,0,0.3,0,0.5,0.1c0.2,0.1,0.3,0.2,0.3,0.3c0.1,0.1,0.2,0.3,0.3,0.3
		c0.1,0.2,0.1,0.3,0.1,0.5c0,0.2,0,0.3,0,0.4s0,0.3-0.1,0.5c0,0.2-0.1,0.3-0.1,0.4s-0.1,0.3-0.1,0.3h0.2l0.3-1.3
		c0.1-0.3,0.2-0.6,0.3-0.8c0.1-0.3,0.2-0.3,0.3-0.5c0.1-0.2,0.3-0.3,0.3-0.3c0.1-0.1,0.3-0.1,0.3-0.1c0.1,0,0.2,0,0.3,0
		c0.1,0,0.2,0.1,0.3,0.1c0.1,0,0.2,0.1,0.3,0.1c0.1,0,0.1,0.1,0.2,0.1c0.1,0.2,0.1,0.3,0.1,0.4s0,0.3,0,0.5s0,0.3,0,0.4
		s0,0.3-0.1,0.3c0,0.2-0.1,0.3-0.1,0.3s-0.1,0.3-0.1,0.3l-1-0.2c-0.1,0.2-0.3,0.3-0.3,0.5c-0.2,0.3-0.3,0.3-0.3,0.6
		c-0.1,0.3-0.3,0.4-0.3,0.7c-0.1,0.3-0.2,0.3-0.3,0.6v0.3l1-0.3c0.1,0.2,0.2,0.3,0.3,0.4c0.1,0.2,0.1,0.3,0.1,0.5
		c-0.2,0.2-0.3,0.3-0.4,0.4c-0.2,0.2-0.3,0.3-0.5,0.3c-0.2,0.1-0.4,0.2-0.7,0.2c-0.2,0-0.3,0-0.3-0.1c-0.2-0.1-0.3-0.1-0.3-0.3
		c-0.1-0.1-0.3-0.3-0.3-0.3C104,23.8,104,23.5,104,23.3z"/>
	<path class="st3" d="M110.9,24.5c-0.3,0-0.8-0.1-1-0.3c-0.3-0.2-0.6-0.4-0.8-0.8c-0.3-0.3-0.3-0.7-0.4-1.1
		c-0.1-0.4-0.2-0.9-0.2-1.4s0.1-0.9,0.2-1.4c0.1-0.4,0.3-0.9,0.4-1.1c0.3-0.3,0.4-0.5,0.9-0.8c0.3-0.2,0.8-0.3,1.2-0.3
		c0.2,0,0.3,0,0.4,0s0.3,0.1,0.4,0.1c0.2,0.1,0.3,0.1,0.4,0.2c0.2,0.1,0.3,0.2,0.3,0.3c0.1,0.1,0.3,0.3,0.3,0.3
		c0.1,0.2,0.2,0.3,0.2,0.4c0.1,0.2,0.1,0.3,0.1,0.4c0,0.2,0,0.3,0,0.5s0,0.3,0,0.3s0,0.3-0.1,0.3c0,0.1-0.1,0.2-0.2,0.3
		c-0.1,0.1-0.2,0.2-0.3,0.3c-0.1,0.1-0.3,0.2-0.3,0.3c-0.1,0.2-0.3,0.2-0.3,0.3c-0.2,0-0.3,0-0.4,0c-0.3,0-0.5,0-0.9-0.1
		c-0.3,0-0.4-0.1-0.6-0.1c0,0.2,0,0.3,0.1,0.3c0,0.2,0.1,0.3,0.2,0.3c0.1,0.2,0.2,0.3,0.3,0.3c0.2,0.1,0.3,0.2,0.4,0.2h0.1h0.1
		c0.1,0,0.3,0,0.3-0.1c0.1-0.1,0.3-0.1,0.3-0.2c0.1-0.1,0.3-0.1,0.3-0.2c0.2-0.1,0.3-0.2,0.3-0.2c0.1,0.1,0.1,0.2,0.2,0.3
		c0.1,0.1,0.1,0.2,0.1,0.3c0,0.1,0.1,0.2,0.1,0.3c0,0.1,0.1,0.3,0.1,0.3s-0.1,0.2-0.2,0.3c-0.1,0.1-0.2,0.2-0.3,0.3
		c-0.1,0.1-0.3,0.3-0.3,0.3c-0.2,0.1-0.3,0.2-0.4,0.3c-0.2,0.1-0.3,0.2-0.5,0.3C111.3,24.5,111.1,24.5,110.9,24.5z M111.6,20.4
		l-0.1-0.7l-0.1-0.1c-0.1,0-0.1-0.1-0.2-0.1c-0.1,0-0.1,0-0.2,0c-0.1,0-0.2,0-0.2,0c-0.1,0-0.2,0-0.3,0c-0.1,0-0.2,0.1-0.2,0.1
		c-0.1,0.2-0.1,0.3-0.2,0.3c0,0.2-0.1,0.3-0.1,0.4H111.6z"/>
</g>
</svg>
